<svg xmlns="http://www.w3.org/2000/svg" viewBox="0 0 260.79 364.28"><defs><style>.cls-1{fill:#3c3c3b;}.cls-2{fill:#daa67f;}.cls-3{fill:#9e1828;}.cls-4{fill:#575756;}.cls-5{fill:#f8bd93;}.cls-6{fill:#bd1622;}.cls-7{fill:#333;}</style></defs><g id="Capa_2" data-name="Capa 2"><g id="Capa_1-2" data-name="Capa 1"><path class="cls-1" d="M130.57,321.33c35.72,7.15,63.72,8.86,105.14,10.32,12.37.44,24.47-7.21,25-16.48.36-6.37.59-21.5-26.48-27.3-25.89-5.54-24.09-5.26-40-12.71-21.53-5.05-37.19-10.46-52-8.53-12.5,10.92-18.61,19.26-19.7,37.51a58,58,0,0,0,0,8.34A9.94,9.94,0,0,0,130.57,321.33Z"/><path class="cls-2" d="M142.19,266.26c11.51,5.32,24.55,5.3,36,2.33,0-.51,0-1,0-1.54.22-22.82,2.89-54,3-77,.2-43.61.65-59.2,2.66-97.74.13-2.19.23-4.4.35-6.66a.81.81,0,0,1,0-.15c-.54-14.21-9.74-22.38-23.28-27.26-15.36-5.53-42.66-15.34-46.66-15.34C105,64.71,93.13,76.61,97.82,105.54c4.83-.33,9.11-1.37,29.57.9a248.47,248.47,0,0,1,6.32,45.81c2.32,40.58,7,87,8.34,111.31C142.11,264.48,142.15,265.39,142.19,266.26Z"/><path class="cls-3" d="M86.28,29.23C73.77,25,26,9.22,10.27,3.56,5.8,2,2,.84,0,0,.16,33.26,0,66.52,0,102.84c16.92,1.66,34.75.21,54.11,1.93a510.3,510.3,0,0,0,56.42,1.46l19.48-60S110.14,37.3,86.28,29.23Z"/><path class="cls-4" d="M239.22,292.77c5.65,10.53-14,13.16-19.71,13-14.89-.44-30.68-10.95-42.84-18.8-4.91-3.18-10.51-8.16-9-14.78,1.62-6.87,10.7-4,15.23-2.38,12.46,4.41,23.34,13.16,36.51,15.72C226.17,286.82,235.55,286,239.22,292.77Z"/><path class="cls-3" d="M203.88,279.43a1.73,1.73,0,0,1,.09.75c-.84,7.64-2.75,18.44-9.75,24.05a1.72,1.72,0,1,1-2.15-2.68c4.5-3.62,7.28-10.73,8.48-21.74a1.72,1.72,0,0,1,3.33-.38Z"/><path class="cls-3" d="M217.6,284.18a1.69,1.69,0,0,1,.09.75c-1,9.3-2.55,16.16-7.39,23.66a1.72,1.72,0,0,1-2.89-1.86c4.47-6.93,5.9-13.38,6.86-22.17a1.72,1.72,0,0,1,1.9-1.53A1.7,1.7,0,0,1,217.6,284.18Z"/><path class="cls-3" d="M193.12,273.41a1.71,1.71,0,0,1,.08.75c-1,8.88-4.36,15.56-11.71,23.07a1.72,1.72,0,0,1-2.46-2.4c5.71-5.84,9.73-11.65,10.75-21a1.72,1.72,0,0,1,1.9-1.53A1.75,1.75,0,0,1,193.12,273.41Z"/><path class="cls-3" d="M190.59,260a100.22,100.22,0,0,1,3.48,13.49,1.72,1.72,0,0,1-2.53,1.83C190.92,275,176.4,266.67,173,257a10.83,10.83,0,0,1,.89-9.63,1.72,1.72,0,0,1,.45-.48,6.89,6.89,0,0,1,5.89-.81C184.32,247.29,187.8,252,190.59,260Zm-.72,10.2a85.6,85.6,0,0,0-2.53-9.07c-3.13-9-6.37-11.25-8-11.79a3.58,3.58,0,0,0-2.67.13,7.48,7.48,0,0,0-.37,6.35C178.31,261.69,185.53,267.27,189.87,270.2Z"/><path class="cls-3" d="M202.41,246.94c2.13,6.12-.8,15.64-8.71,28.29a1.73,1.73,0,0,1-3.13-.47c-.31-1.19-7.68-29.12,5.48-33.22a1.59,1.59,0,0,1,.89,0A8.15,8.15,0,0,1,202.41,246.94ZM193,269.78c11.34-19.7,5.29-24,3.61-24.78C190.09,247.71,191.28,261.34,193,269.78Z"/><path class="cls-1" d="M52.64,342.62C87.4,353.5,115.07,358.16,156.1,364c12.26,1.74,25.1-4.58,26.61-13.74,1-6.3,2.86-21.31-23.44-29.94-25.17-8.26-23.4-7.78-38.41-16.87C100,296.15,85,289.1,70,289.46,56.43,299,49.47,306.64,46.46,324.67a57.65,57.65,0,0,0-.89,8.3A9.94,9.94,0,0,0,52.64,342.62Z"/><path class="cls-5" d="M70,289.09c10.87,6.5,23.85,7.86,35.58,6.12l.18-1.53c2.63-22.67,8.58-53.35,11.15-76.26,4.81-43.34,6.9-58.8,13-96.91.35-2.17.69-4.35,1.05-6.58a.35.35,0,0,1,0-.15c.95-14.19-7.32-23.29-20.27-29.57C96,77.09,69.89,64.45,65.91,64c-11.56,20.72-24.64,31.3-23,60.56,4.84.18,9.2-.4,29.31,4a248.29,248.29,0,0,1,1.44,46.22c-2,40.6-2.23,87.25-3.47,111.57C70.12,287.31,70.07,288.21,70,289.09Z"/><path class="cls-6" d="M81.15,69S62.34,58,39.47,47.47C32.77,44.39,16.53,38,0,30.47v87.64c26.79,5,55.44,8.5,55.44,8.5Z"/><path class="cls-4" d="M163.7,325.7c4.51,11.07-15.28,11.61-21,10.84-14.76-2-29.35-14.13-40.62-23.23-4.55-3.68-9.58-9.22-7.34-15.64,2.33-6.66,11-2.84,15.4-.76,11.92,5.7,21.81,15.55,34.64,19.49C151.36,318.41,160.77,318.53,163.7,325.7Z"/><path class="cls-3" d="M130,308.7a1.63,1.63,0,0,1,0,.76c-1.64,7.51-4.69,18-12.24,22.88a1.72,1.72,0,1,1-1.85-2.89c4.86-3.12,8.37-9.9,10.73-20.72a1.72,1.72,0,0,1,2-1.32A1.74,1.74,0,0,1,130,308.7Z"/><path class="cls-3" d="M143.11,314.87a1.62,1.62,0,0,1,0,.76c-2,9.14-4.24,15.8-9.85,22.75a1.72,1.72,0,1,1-2.67-2.16c5.17-6.42,7.27-12.68,9.15-21.32a1.72,1.72,0,0,1,3.36,0Z"/><path class="cls-3" d="M119.9,301.58a1.58,1.58,0,0,1,0,.75c-1.9,8.73-6,15-14.08,21.71a1.72,1.72,0,0,1-2.19-2.66c6.3-5.2,10.9-10.55,12.91-19.78a1.72,1.72,0,0,1,3.36,0Z"/><path class="cls-3" d="M118.8,288a98.88,98.88,0,0,1,2,13.78,1.72,1.72,0,0,1-2.71,1.55c-.58-.42-14.14-10.2-16.48-20.22a10.88,10.88,0,0,1,1.91-9.49,1.83,1.83,0,0,1,.49-.43,6.9,6.9,0,0,1,6-.18C113.91,274.67,116.88,279.71,118.8,288ZM117,298a85.44,85.44,0,0,0-1.56-9.28c-2.16-9.28-5.14-11.86-6.73-12.57a3.6,3.6,0,0,0-2.67-.16,7.53,7.53,0,0,0-1,6.28C106.41,288.36,113,294.67,117,298Z"/><path class="cls-3" d="M131.94,276.24c1.47,6.31-2.45,15.46-11.66,27.2a1.71,1.71,0,0,1-3-.79c-.19-1.21-4.56-29.76,9-32.46a1.72,1.72,0,0,1,.9.06A8.18,8.18,0,0,1,131.94,276.24ZM120.13,298c13.36-18.39,7.79-23.31,6.21-24.26C119.6,275.7,119.35,289.38,120.13,298Z"/><path class="cls-7" d="M243.46,18.7,225.11,39.37,213.3,52.67c5.25-.22,9.91-.41,11.07-.39a5.27,5.27,0,0,1-.18,10.54c-1.84,0-18,.72-27.81,1.2a5.27,5.27,0,0,1-5.48-5.95l3.61-27.93A5.27,5.27,0,0,1,205,31.49l-1.48,11.43,34-30.19A4.23,4.23,0,0,1,243.46,18.7Z"/></g></g></svg>