<svg xmlns="http://www.w3.org/2000/svg" viewBox="0 0 568.92 307.53"><defs><style>.cls-1{isolation:isolate;}.cls-2{fill:#933214;}.cls-3{fill:#ba5f52;}.cls-10,.cls-14,.cls-3,.cls-5,.cls-7,.cls-8{mix-blend-mode:multiply;}.cls-4{fill:#f3c38d;}.cls-5{fill:#f7e9e4;}.cls-6{fill:#d67d2d;}.cls-7{fill:#f2c898;}.cls-8{fill:#e3c29d;}.cls-9{fill:#63352a;}.cls-10{fill:#f0e7d6;}.cls-11{fill:#542213;}.cls-11,.cls-13{mix-blend-mode:screen;}.cls-12{fill:#edae45;}.cls-13{fill:#383027;}.cls-14{fill:#c7aa8a;}</style></defs><g class="cls-1"><g id="Capa_2" data-name="Capa 2"><g id="Capa_1-2" data-name="Capa 1"><path class="cls-2" d="M378.52,206.31a41.07,41.07,0,0,0,5.69,5.36c9.47,7.48,39.71,48.91,95.13,38.67s94.59-26,89.06-52.79A14.51,14.51,0,0,0,565,191c-17.49-20.19-92.33-20.1-112.75-21.11-22.43-1.07-48.1,2.84-61.68,14.1C380.75,192.13,372.58,199.39,378.52,206.31Z"/><path class="cls-3" d="M378.52,206.31a41.07,41.07,0,0,0,5.69,5.36c9.47,7.48,39.71,48.91,95.13,38.67s94.59-26,89.06-52.79A14.51,14.51,0,0,0,565,191a56.6,56.6,0,0,1-6.54,3.45c-17.39,7.6-42.64,3.6-61.2,4.5-36.05,1.72-46.72-.19-92.28,4.3,2.34,3.87,18.55,3.85,24.5,4.62,13.86,1.78,27.67,1,41.58.65,24.8-.6,58.19-5.26,65.42.21,6.44,4.88-11.06,10.58-17.59,13.05-11.27,4.2-22.62,5.17-34.53,7-17.79,2.7-33.13,3.35-50.36-1.64-15.53-4.51-28.19-11.12-42-19A17.89,17.89,0,0,0,378.52,206.31Z"/><path class="cls-4" d="M354.29,306c-28.21,6-80.36-6.75-102.61-23.55-9.49-7.18-16.61-18.12-17.09-30-.25-7.26,1.16-10.31,3.78-11.75,4.32-2.53,13.22-5.67,20.09-7,19.59-3.9,53-5.22,71.74,2.06,10.55,4.1,40.19,12.66,54.41,24.84,4.61,4,7.54,8.3,7.75,13C393,287.38,365.48,303.65,354.29,306Z"/><path class="cls-5" d="M354.29,306c-28.21,6-80.36-6.75-102.61-23.55-9.49-7.18-16.61-18.12-17.09-30-.25-7.26,1.16-10.31,3.78-11.75a6.69,6.69,0,0,1,2.81,2.43c2.59,4.27-1.75,3.94-2.77,6.68-1.34,3.4,2.11,5.85,3.69,8.31,2.39,3.55,4.49,8,7.91,10.74,5.43,4.43,13.35,5.07,17.23,11.83,9.13,15.73,30.94,16.36,47.43,17.13,4.3.15,7,2.69,11.16,3.41,11.55,2.06,19.41.24,29.15-6.15,2.79-1.83,5.19-4.41,8.11-5.94,2.67-1.32,5.83-1.88,8.6-3.07,3.26-1.43,7.61-2.67,3.92-6.08-3.14-3-11.23-3.83-15.07-4.86a117.15,117.15,0,0,0-16-2.65c-10.36-1.21-19.85-3.49-30.07-5.4-14.75-2.66-30.94-5-45.05-10.07,18.91,2.51,37.42,3,56.1,6.45,15,2.75,30.38,6.74,45.56,8.23,4.91.46,13.12,3.64,14.81-2.35.79-2.77-.1-6.14-1.32-8.62,0-.06.07-.11.08-.16,4.61,4,7.54,8.3,7.75,13C393,287.38,365.48,303.65,354.29,306Z"/><path class="cls-6" d="M.64,226.42a48.09,48.09,0,0,0,1,20c0,.23-2,15.06,43.75,21.88,12.19,1.81,29,.12,47.44-3.49a1.48,1.48,0,0,1,.29-.08c2.17-.43,4.38-.9,6.59-1.36a.43.43,0,0,0,.21-.05c49.74-10.93,107.42-34.13,114.09-40.25.82-.75,1.66-1.53,2.41-2.3,8.26-8.05,14.18-16.06,16.33-17.41,2.36-1.48,5-3.66-6-5.93-9.67-2-35.08-25.67-107.13-23.26-9.74.33-20.37,1.13-31.94,2.54-1.94.23-3.84.5-5.71.74q-10.1,1.41-18.59,3.3C40,185.88,25,193.36,15.49,201.56S2,218.48.64,226.42Z"/><path class="cls-7" d="M.64,226.42a48.09,48.09,0,0,0,1,20c0,.23-2,15.06,43.75,21.88,46.17,6.88,159.14-36.51,168.62-45.23.82-.75,1.66-1.53,2.41-2.3l13.19-15.33s-8.8-1.9-22.38,2.4c-5.73,1.82-14.39,7.65-21.05,9.09-3.49.75-8.49-1.87-17.26.19-3.93.93-13.73,2.57-14.65,7.25-2.65,13.47-19.68,4.7-28.17,5.39-8,.65-13.26,6.07-21.36,7.76-9.46,2-15.83-2.87-24.56-1.34-14.69,2.58-28.08,8.27-36.41,8.3C13.41,244.6,1.78,227.54.64,226.42Z"/><path class="cls-8" d="M71.94,217.59c.11,5-.64,7-5.87,7.29-3.43.21-17.79,0-19.17-3.83C43.43,211.42,66,214.39,71.94,217.59Z"/><path class="cls-8" d="M92.38,189.37c-2.66,1.36-4.64,3.72-7.49,3.89-2.38.13-5.81-1.51-8.13-2.29-1.11-8.27,15.8-8.77,17-3.17-.22.9-.4-.06-1,.2Z"/><path class="cls-8" d="M105.46,227.55c-3.11-1-14.16-3.43-12.85,3.89.84,4.7,5.67,2.71,8.51,1.74,1.7-.59,10.37-1.44,10.76-3.23.32-1.5-1.67-1.71-2.54-2.13-.51-.24-1.66.31-2.26.17a43.53,43.53,0,0,1-7.24-2.41Z"/><path class="cls-8" d="M158.41,196c-1.31-4.5-.74-6.31,6.36-6.75,4.65-.28,24.41-.49,27.2,2.95C199,200.86,167.34,198.77,158.41,196Z"/><path class="cls-9" d="M57.48,90.77C60.61,101,73.76,111.88,83,118.42c14.51,10.13,31,15.48,50.07,16.39,21.68,1,50.13-9,55.31-28.28,1.14-4.21,7.17-21.51.57-29a20.54,20.54,0,0,0-1.31-3.75,4.46,4.46,0,0,0-.4-.91c-2.79-6-8.08-10.76-14.68-14.57-12.12-7.11-21.28-9.9-36.36-9.9a226.52,226.52,0,0,0-34,2.84c-9.33,1.43-16,5.12-23.84,9.45C72.5,63.91,67,67,63,70.68a20.64,20.64,0,0,0-4.72,5.81C56.17,80.36,55.72,85,57.48,90.77Z"/><path class="cls-10" d="M57.49,90.78c3.13,10.16,16.28,21.13,25.49,27.63,14.51,10.15,31,15.47,50.07,16.37,21.68,1,50.13-9,55.31-28.24,1.14-4.22,7.17-21.5.57-29.05a22.34,22.34,0,0,0-1.71-4.65,85.83,85.83,0,0,1-11.55,11c-10.81,8.4-7.77,18.56-22,19.8-15.53,1.28-32.26,1.56-47.79-.53-11.89-1.61-31.21-16.33-40.14-21.79-3.08-1.85-5.24-2.7-7.4-4.79C56.19,80.34,55.73,85,57.49,90.78Z"/><path class="cls-11" d="M63,70.68c12.41,1.14,25.36,9.38,37.4,13.44C111.9,88,132.63,90.53,158.46,88c7.17-.74,17.71-7.16,24-10.12a13.78,13.78,0,0,0,5.12-4.09,4.46,4.46,0,0,0-.4-.91c-2.79-6-8.08-10.76-14.68-14.57-12.12-7.11-21.28-9.9-36.36-9.9a226.52,226.52,0,0,0-34,2.84c-9.33,1.43-16,5.12-23.84,9.45C72.5,63.91,67,67,63,70.68Z"/><path class="cls-12" d="M464.82,93.05c-6.92,4-2.54,3-2.75,11.6-.23,7.44-5.3,7.76-13.17,10.25-1.25.37-2.6.85-4,1.38-10.08,3.88-2.45,9.6-4.84,15.52s-16.56,8.65-30.45,8.71c-2.09,0-3.77,0-5.25-.13h-.05a2,2,0,0,1-.57-.07c-7.67-.62-7.45-3.23-13.69-10.64-6.89-8.25-11.72-20.83-14-23.25a1.66,1.66,0,0,0-.58-.38.91.91,0,0,0-.41,0c-2.35-.08-9.44,2.58-12.53,5.79a6.88,6.88,0,0,0-1.14,1.54,5.13,5.13,0,0,0,.11,4c1.44,4.35,6,10.07,7.69,14.82s-1.45,10.26-3.55,14a20.6,20.6,0,0,0-1.48,2.93,27.47,27.47,0,0,1-1.21,3.17v.05a17.16,17.16,0,0,1-.84,1.52,24,24,0,0,1-7.89,7.94c-4,2.6-9.61,5.08-17.66,7a30.49,30.49,0,0,1-3.37.68.31.31,0,0,1-.2.06,23.51,23.51,0,0,1-3.19.42,33.16,33.16,0,0,1-15.14-1.4.17.17,0,0,0-.1,0c-7-2.49-10.44-6.89-13.57-7.28-1.95-.26-5.26-.39-9.14-.55-4.95-.2-10.82-.45-16-1.1-1.8-.26-3.54-.53-5.14-.85-9.52-2-9.71.2-17.26-6a25.21,25.21,0,0,1-5.43-6.44,45.58,45.58,0,0,1-3.53-7.2,40,40,0,0,1-1.75-5.25c-1.63-3.84-4.57-11.57-6.82-17.52-1.23-3.19-2.18-5.84-2.71-7.19-.18-.55-.3-.85-.3-.85a55.42,55.42,0,0,1-6-12.26,18.53,18.53,0,0,1-.73-2.3c-2-7.59,6.51-19.64,10.53-22.55a1.29,1.29,0,0,0,.52-.79c.43-1.49-.87-4.12-1-6.61a6.86,6.86,0,0,1,.07-1.43c.54-3.39,7.63-6.15,7.51-8.48s1.72-9,7.45-10.32-.75-7.6,8.93-16.3A44.16,44.16,0,0,1,301.47,18,15,15,0,0,1,309,23c6.63,8.16,4.57,22.32,6.68,24.75,1.57,1.8,2.51-3.64,4.91-10.28,0-.05.05-.11.05-.16,1.74-4.72,4.26-10,8.3-13.67l.73-.65c3.36-2.82,6.28-3.43,8.76-2.89h.05c4.21.85,6.88,5,7.65,7.19a21.34,21.34,0,0,0,1.92-14c-1.67-7.7,2.95-6.87,14.52-11.55C368-.53,375.41-.36,381.89,1c7.26,1.51,13.32,4.56,14.29,7.51.79,2.4,1.12,4.83,1.65,7.19.2.91.4,1.82.65,2.67a12,12,0,0,0,3.77,6c2.92,2.45,8.52,1.44,14.16,1.1,3.35-.22,6.7-.25,9.56.88,7.64,3,3.35,5.63,5.59,8.51,1.36,1.77,2.93,3.52,4.45,5.32a29.67,29.67,0,0,1,2.67,3.48.52.52,0,0,0,.22.24,3.23,3.23,0,0,0,.86.87,6.23,6.23,0,0,0,1.8,1.39c2.31,1.2,5.66,2.15,10.79,4.88,8,4.12,16.46,19.87,19.14,26.35S471.74,89.07,464.82,93.05Z"/><path class="cls-8" d="M407.33,32c-3.94,2.5-6.94,6.57-11.79,7.28-5.2.78-6.92-2.84-5.08-7.67,1.65-4.42,5.27-8.22,7.56-12.31.18-.32.32-.63.46-.94a12,12,0,0,0,3.77,6c2.92,2.45,8.52,1.44,14.16,1.1C413.36,27.65,410.43,30.05,407.33,32Z"/><path class="cls-8" d="M439,71.12c-.49,2.22-3.1,4-4.37,6a17.74,17.74,0,0,0-2.95,8.81c-.12,4.69,2.14,10.89.28,15.31-.86,2.08-1.7,2.58-3.3,1.09-2.19-1.93-1.42-6.7-1.35-9.3.13-6.32.53-12.3-2.22-18.16-2.12-4.68-5.86-6-10-8.44-2.73-1.59-5.28-1.76-8.43-2.62s-3.88-2.19-4.55-5.16c-.92-4.13-4-7.38-3.45-11.58,8.56-.9,18.32,2.71,26.42-1.12,3.57-1.71,7.34-3.74,10.9-5.76a29.67,29.67,0,0,1,2.67,3.48.52.52,0,0,0,.22.24c-3.84,1.53-7.42,3.29-9,7a9.38,9.38,0,0,0,1.67,9.64C434.15,63.23,440,66.59,439,71.12Z"/><path class="cls-8" d="M381.89,1c-2.78,1.32-4.77,2.24-7,4.85-2.55,3-5.4,5.88-7.73,9.1-3.32,4.61-6.15,10-5.59,15.82.49,4.56,4.88,8.76,4.35,13.17s-3.24,6-7,5.1c-7.05-1.66-9.66-5.46-12-9s-2.05-12.27-4.52-15.75a21.84,21.84,0,0,0-4-4.28c4.21.85,6.88,5,7.65,7.19a21.34,21.34,0,0,0,1.92-14c-1.67-7.7,2.95-6.87,14.52-11.55C368-.53,375.41-.36,381.89,1Z"/><path class="cls-8" d="M376.07,106.42a1.66,1.66,0,0,0-.58-.38c-2-.51-12.06,3.17-14.08,7.3a5.13,5.13,0,0,0,.11,4c-2.27-2.38-4.2-5.29-6.26-7.67-3.25-3.75-8.26-9-3.88-13.9,1.3-1.45,3.19-1.44,4.43-2.93,1.44-1.71,1.65-4.52,1.64-6.65a22.1,22.1,0,0,0-6.62-15.8c-3.17-3.14-8.77-7.08-10.16-11.33s-5.21-8.94-6.76-13.39c-1.19-3.35-6.67-12.24,1-10.24,3.51.9,6.4,7.55,8.18,10.47a21.65,21.65,0,0,1,3.39,10.41c.28,2.43.48,2.37,2.43,3.54A29.38,29.38,0,0,1,359.26,70c2.78,4.64,4.63,9.84,7.62,14.42,1.55,2.37,3.54,4.45,5.24,6.81,2.58,3.53,3.16,6.91,3.54,11.22C375.78,103.73,375.9,105.1,376.07,106.42Z"/><path class="cls-13" d="M374.58,48c4.92,1.45,12.67,2.47,13.8,8.12.43,2.13,0,4.21.54,6.34s1.89,3.57,3,5.38c2.29,3.69,2.82,6.74,6.43,9.57,2.6,2,5.84,4.21,7.35,7.14,4,7.68-6.39,10.45-13,8.8a13.18,13.18,0,0,1-5.64-2.75c-3.13-2.72-4.05-4.65-3.92-8.3.12-3.13.71-6.5,0-9.64s-2.81-6.38-4.59-9.08C377.86,62.5,366.57,46.62,374.58,48Z"/><path class="cls-13" d="M422.51,86c-16.57.47-14.23,21.82-14.81,33.26-.24,4.55-3,7.55-4,11.75-.55,2.29-.38,4.86,1.71,6.08,3.48,2,7.24-.56,10.52-1.75,2.29-.83,10.41-1.22,8-5.23-1-1.66-3.22-1.85-4.76-2.66a10.58,10.58,0,0,1-3.83-3.72A17.14,17.14,0,0,1,412.71,112c1.22-6.66,6.54-10.31,9.28-16.13C423.08,93.55,425.05,89.05,422.51,86Z"/><path class="cls-13" d="M456.32,98.41c-.53-3.08-4.24-5.81-6.9-7-3.34-1.48-5.9-2.31-9-.47-5,3-4.21,9.44-1.8,14s9.67,9,14.68,5.74c3.72-2.44,3.52-9.06,2.66-13C455.57,97.66,455.15,97.55,456.32,98.41Z"/><path class="cls-8" d="M335.62,95.08c-.8-2.31-3.18-3.8-4.52-5.78a39.61,39.61,0,0,1-2.65-5.73,52.5,52.5,0,0,1-5.1-18.23c-.46-4.72-2.77-8-7.81-8.73-5.34-.77-8.6,1.4-12,5.19a64.38,64.38,0,0,1-13.26,11.58c-2.23,1.44-4.25,1.3-5.69,3.81-3.43,6-.59,12.29,2.12,18,1.34,2.85,3,6.16,5.26,8.28,2,1.92,4.81,6.14,7.19,7.32,3.8,1.89,6.38-3.38,7-6.37,1-4.64-1.21-12.26-5.63-14.38-3-1.44-6.77-4.12-4.86-8.29,1.22-2.66,4-2.75,6.17-3.85,3.45-1.71,1.9-3.71,3.82-6.27,4.17-5.59,7.22.94,7.27,4.73,0,1.84-.15,3.67-.23,5.46-.1,2.34-.34,3.4,1,5.21,1.9,2.52,5.34,3.29,7.38,5.63,1.52,1.76,1.76,4.27,3.25,6,1.75,2.08,6,3.48,8.69,3.27C336.26,101.76,335.46,99.22,335.62,95.08Z"/><path class="cls-14" d="M244.84,89.11c-.79,1.56-2.52,2.42-3.68,3.7A14.9,14.9,0,0,0,238.83,97c-.53,1.41-.81,3-1.45,4.35-.74,1.52-2,2.81-2.73,4.37-.46.94-.79,2.28-1.4,3.33-.18-.55-.3-.85-.3-.85a55.42,55.42,0,0,1-6-12.26A11.2,11.2,0,0,0,232,94.4a38.24,38.24,0,0,1,4.65-2.63C239.61,90.4,241.53,89.12,244.84,89.11Z"/><path class="cls-8" d="M275.89,159.53c-1.8-.26-3.54-.53-5.14-.85-9.52-2-9.71.2-17.26-6a25.21,25.21,0,0,1-5.43-6.44c0-.1,0-.2,0-.31a23.54,23.54,0,0,1,3.69-10.42c1.28-1.75,3.1-3,4.49-4.66,1.86-2.34,5.45-10.67,9.25-10.1,2.16.34,1.53,4,2.75,5.81s3.45,3.69,3,6.15c-.31,1.85-1.53,3.7-2,5.61a22.59,22.59,0,0,0-.59,5.27c.12,5.14.7,9.44,4.21,13.28A19.29,19.29,0,0,0,275.89,159.53Z"/><path class="cls-8" d="M299.48,24c-2.3-3.75-7.68-3.16-11.48-3.54s-13.12-2.55-16.2.4c-4.94,4.75,3.24,6.24,5.9,6.5,5.11.5,4.4,1.45,5.38,5.84,1,4.65,4.74,3.7,8.67,4.63,3.06.73,6.54,2,8.92-1.7,1.1-1.68,2.17-6.86,1.69-9C302.05,25.71,300.77,24.74,299.48,24Z"/><path class="cls-8" d="M244,56.82c-2.19,5.48-11.73,9-.83,11.36,5.2,1.14,10.44.39,15.6,2,4.66,1.43,4.3,5.52,9.36,4.73,1.77-5.88-10.6-10.57-14.59-12.07C250.18,61.57,247.44,57.28,244,56.82Z"/><path class="cls-13" d="M270.65,91.72c.29,9.54-11.09,10.49-12.56,18.82a18.16,18.16,0,0,1-5.95,11.23c-2,2-5.22,4-4.21,7.29,8.49-.57,7.67-8.88,14-12.31s11.27,1.89,15.61,5.76c2.55-1.37,2.31-5.13,2.07-7.63-.48-5.09-4.55-8.19-6.72-12.58-1.63-3.28-.14-5.3-.29-8.6C272.54,92.48,272.28,91.14,270.65,91.72Z"/><path class="cls-8" d="M365.68,146.16a17.52,17.52,0,0,0-1.51,2.92,26.45,26.45,0,0,1-1.18,3.16c-3.21-2.42-7.81-3.78-11.3-6.41a65.88,65.88,0,0,0-9.85-6.22c-1.5-.63-4.69.14-5.35,3.76-.58,3.09.52,7.42,8.6,16a39.76,39.76,0,0,1,3.8,5.46c-5.82,1.82-7.38,2.87-12.31,3.93-4.65,1-9.71,2-16.37,1.12-1.23-.2-2.79-.65-3.91-.91-.12,0-2.45-.86-3.41-1.15a24.06,24.06,0,0,0-.75-3.63c-2.16-6.49-3.87-12.45-3.79-19.33.1-3.76,1.45-12.53,1.14-18.13-.25-4.69-1.46-11,3.07-13.79,2.23-1.38,4.83,1.28,7.41,1.58,5.14.74,7-4.63,12.3-5.21,3.28-.38,16.42,3.11,12.42,8.5-2.88,3.82-11.07.55-14.62,4.62-2.48,2.85-2.85,7.14.07,9.34,2.68,2,7.17,1,9.59,1,3.7,0,6.57-1.73,9.1-5,2-2.56.82-5.21,3.43-7,2.81-1.95,3.15,9.42,3.19,11.79.08,2.94-1,7.12,1.26,9.35C358.79,143.92,362.35,146.17,365.68,146.16Z"/><path class="cls-13" d="M377.25,16.77c-1.09,2.35-6.14,8-3,10.25,1.21.86,5.79-.63,6.94-1.3,2.27-1.31,3.35-3.69,4.42-5.9,1.84-3.82,3-6.2-1.74-6.57-2.28-.17-7.2-.47-7.65,2.62Z"/><path class="cls-13" d="M286.33,63.1c2.09-1.54,9.23-4,7.53-7.55-.64-1.34-5.38-2.24-6.7-2.21-2.62.06-4.72,1.63-6.72,3-3.45,2.46-5.62,4-1.63,6.59,1.91,1.25,6.07,3.88,8,1.39Z"/></g></g></g></svg>