<svg xmlns="http://www.w3.org/2000/svg" viewBox="0 0 564.92 551.97"><defs><style>.cls-1{fill:#2d2d28;}.cls-2{fill:#f8bd93;}.cls-3{fill:#706f6f;}.cls-4{fill:#878787;}.cls-5{fill:#063;}.cls-6{fill:#daa67f;}.cls-7{fill:#f7bc93;}.cls-8{fill:#008d36;}.cls-9{fill:#30241a;}.cls-10{fill:#49301c;}.cls-11{fill:#c94117;}.cls-12{fill:#1e3d70;}.cls-13{fill:#2a4e96;}.cls-14{fill:#e84e1b;}.cls-15{fill:#d32f2f;}.cls-16{fill:#0c0c0b;}</style></defs><g id="Capa_2" data-name="Capa 2"><g id="Capa_1-2" data-name="Capa 1"><path class="cls-1" d="M282.18,450.28c-4.81-2.34-19.33-8.71-19.33-8.71l-.81-18.9-16,1,2.19,18.4-2,8.13s18.2,3.64,24.34,4.45c3.6.48,14.9,1.55,14.38-2.23C284.85,451.57,283,450.68,282.18,450.28Z"/><path class="cls-1" d="M202.81,453.84c-2.9-4.13-12.37-18.36-12.37-18.36l8.47-16.93-13.66-5.15L177,430.09l-5.66,6.15s14.16,12,19.12,15.71c2.92,2.17,12.18,8.55,13.66,5C204.4,456.31,203.32,454.58,202.81,453.84Z"/><path class="cls-2" d="M260,173.28,270.28,218s-.7,1-5.73,6.4c0,0-3.09,4.18-13.77-16.42L236.1,170.74S244.57,155,260,173.28Z"/><path class="cls-2" d="M257.55,225.09s10.73,8.81,14.53,11.44c5.79,4,24.11,14.53,24.11,14.53l3.82-4.72-16.76-17.75c-8.57-8.5-11.19-9.06-13.78-11.5-4.86-4.58-10.61-9.4-10.61-9.4l-9.78,6.85S250.37,218.51,257.55,225.09Z"/><path class="cls-2" d="M306.37,255.75l-10.18-4.69,1.64-7.15,5.57-2s8.36,0,10.5,6.07C313.9,248,314.86,257.17,306.37,255.75Z"/><path class="cls-3" d="M257.07,251.57l11.81,97.85-1.29,90.26c-3.21,7.18-21.65.47-21.65.47l-8.28-89.32-28.91-99.26Z"/><path class="cls-4" d="M189.5,349.41,189.62,244l52.79.61L218.59,356.63,195,436.5s-21-2.58-21-11.54Z"/><path class="cls-5" d="M248.52,206.28c-7.51-19.36-11.69-27.36-12.2-30.74,0,0-2.11-15.1,6.82-19.82,0,0,6.27-5.53,10.35-.67,0,0,3.82-.71,15.42,37.91,0,0-9,13.13-20.39,13.32"/><rect class="cls-2" x="219.29" y="130.98" width="19.26" height="18.85"/><path class="cls-6" d="M219.29,135.93v-5h19.26V141.9C231.67,142.41,222,142,219.29,135.93Z"/><polygon class="cls-7" points="215.91 157.33 211.91 146.36 219.29 144.2 238.59 144.2 252.51 151.68 249.74 157.33 215.91 157.33"/><path class="cls-8" d="M187.77,275.17S204,296.81,260,273.63C258.48,218.12,257.5,165,257.5,165c0-7.33-2.24-11-5-13.27-3.07-2.49-13.92-7.48-13.92-7.48s3.4,6.56-4.73,6.62c0,0-12.89,1.53-14.57-7.38L207,148s-12.5,2.07-15.06,19.79C191.94,167.83,184,208.94,187.77,275.17Z"/><path class="cls-2" d="M208.83,188.67l-19,36.22s-1.57,4.73-8.87,5.78c0,0-10.7,4.09-6.09-18.65l11.92-38.24S208.28,164.81,208.83,188.67Z"/><path class="cls-2" d="M174.45,227.22l8,24.44L196.48,276l5.63-2.28L196,247.38a247.26,247.26,0,0,1-5.63-25.78L179.77,209l-4.36,8.6S172.33,221.41,174.45,227.22Z"/><path class="cls-2" d="M201.9,273.48l6.11,5.33,3.24,4.65a.88.88,0,0,1-.95,1.36l-1.45-.38,2.76,5.89a2.54,2.54,0,0,1-2,3.59,12.75,12.75,0,0,1-4.41,0s-7.67-5.57-8-9.59l-.94-8.56Z"/><path class="cls-9" d="M235.51,95.22c.25,3.84,1.64,7.89,2,11.83s.44,8,1.62,11.69c.73,2.23,2.09,4.47,4.72,3.41s3.41-5,4.49-7.27c1.39-3,1.5-5.36,2-8.6.41-2.64,1.26-7,.47-9.6-1.7-5.62-9.08-5.49-13-3.23-.64.37-1.2.88-1.84,1.25"/><path class="cls-2" d="M242.55,131.12c-3,5.86-6.22,6.93-6.22,6.93s-3.59.93-5.84.19-5.93-2.6-5.93-2.6c-7.9-4.89-8.58-5.61-9.32-10.48,0-.15-.62-22.46-.62-22.46C216.28,90.46,229.4,90.86,231.37,91s14.67-.57,15.55,11.75c0,0,.46,3.77-.2,12.31A35.16,35.16,0,0,1,242.55,131.12Z"/><path class="cls-9" d="M218.75,119.41l3.72-9.68-.64-7c7.46.08,10.8-2,14.36-1.8,0,0,14.21,5.32,14-4.79-.11-5.62-9.36-7.23-9.36-7.23-6-2-8.92-.28-11.63.79-5,2-8.21,1.25-10.46,1.35-2.83.12-5.88,2.37-6.84,7.54-5.42,5.89-4.42,10.28-2.18,15.07,3.87-1.79,8,1,7.33,5.7l1.69,0"/><path class="cls-2" d="M218.75,119.41s-.65-10.93-7.75-7.94c0,0-2.28,1.06-.81,5.55,0,0,2.15,6.46,7,4.28Z"/><path class="cls-9" d="M238.55,141.9c3.76-.29,6.37-4.23,7-6.07a28.48,28.48,0,0,0,1.52-7.85c.08-2.59-.48-10.38-.48-10.38-1.09,6.45-3.32,8.72-6.85,7.66-3.12-.93-3.94,1.91-6.94,1.14-1.6-.41-2.63-1.46-4.52-1.38-1.74.07-5.08,0-6-1.69-.27-.49-3-8.29-3-8.29h-1.47c.42,0,.35,6.55.27,7.18-.31,2.5-1.35,2-2.65,4.1,0,0-.12.51-.22,1.28a6,6,0,0,0,2.37,5.6C223.5,137.62,231.51,142.45,238.55,141.9Z"/><path class="cls-2" d="M239.28,129.69a5,5,0,0,1-1.7,1.47,4.28,4.28,0,0,1-2.82.61,6.14,6.14,0,0,1-2.52-.55c-.41-.23-2-1.2-2-1.63C230.49,127.11,240.21,128.11,239.28,129.69Z"/><path class="cls-5" d="M198.18,153.07s17.17-1.25,16.38,19.64l-9.29,28.34s-21-6.61-24.85-16.66C180.42,184.39,189.72,158.36,198.18,153.07Z"/><path class="cls-1" d="M324.28,456.38c3.24-1.85,11.59-6.93,11.59-6.93l-.28-13.18h12.63l-.69,12.89,1.72,5.57s-12.49,3.34-16.71,4.18c-2.49.5-10.3,1.75-10.1-.91C322.48,457.39,323.74,456.69,324.28,456.38Z"/><path class="cls-1" d="M365.47,461.19c2.42-2.55,9.14-10.06,9.14-10.06l-4.1-12.53,12.09-3.67,3.08,12.53,3.27,4.82s-11,6.83-14.78,8.87c-2.24,1.19-9.27,4.64-9.93,2.06C364.12,462.73,365,461.65,365.47,461.19Z"/><path class="cls-10" d="M381.57,252c1.22,11,3.85,19.89,5.84,31.09,1.95,11,.79,26.22,1.84,28.08-9-.08-30.86-18.75-30.6-25.33.18-4.71-4.58-12.25-5.1-17-1.22-11.19-5.74-23.16-5-28.59.74-5.17,13.53-9.43,23.32-5.16C378.33,237.92,380.85,245.48,381.57,252Z"/><path class="cls-10" d="M344,248.32c0,5.37.22,11.32,3.47,15.38,1.65,2.07,2.69,4.38,5.37,2.93s4.31-5.43,5.47-8.18c2.45-5.77,12.56-21.92,4.05-23.69C349,232,344,242.26,344,248.32Z"/><path class="cls-2" d="M312.87,244.85c3.24-.37,3,1.45,3.49,3.87.36,1.86.12,1.62.55,3.51a3.66,3.66,0,0,1,.76-2.82,1.38,1.38,0,0,1,2.13.13l-1,4.55c-.23.93-.38,1.89-.65,2.82a6.42,6.42,0,0,1-2.09,3,3.21,3.21,0,0,1-4.69-1c-.9-1.45-1.09-3.28-1.59-4.89C309.78,254,308.59,247.22,312.87,244.85Z"/><path class="cls-11" d="M360.15,286.43s-1.56,6.79-10.27,6.52c0,0-15.92,1.05-28.43-2.77-7.6-2.24-9.21-18.83-10.29-31.69,0,0,2.14,2.28,6,.31a188.85,188.85,0,0,0,10.38,18.46s22.33.36,27.75,3.1C355.25,280.36,359.94,281.88,360.15,286.43Z"/><polygon class="cls-12" points="334.89 447.37 335.79 398.77 341.65 343.19 364.87 343.19 352.17 400.68 349.88 449.97 334.89 447.37"/><polygon class="cls-13" points="349.25 342.64 354.13 363.19 362.1 403.57 372.55 450.43 386.28 445.96 378.38 400.87 377.37 342.64 349.25 342.64"/><path class="cls-7" d="M363.28,286s-.33,18,12.17,14c0,0,8.17-9.49-1.54-16.18Z"/><rect class="cls-2" x="354.84" y="272.06" width="9.67" height="11.02"/><path class="cls-6" d="M354.84,277.12v-5.06h9.67v6C361.09,278.13,357.81,278.11,354.84,277.12Z"/><path class="cls-14" d="M339.69,347.14s25.18,10.43,41.27,4.28L378,300.16l.71-14.27a11.15,11.15,0,0,0-5.89-4.51l-5-1.85-1.38-.52h0l-1.94-.72s-.95,1.06-4.83,1.13c0,0-3.56.14-4.84-1.13l-1.56.91v0s-1.78.83-3.77,1.84a10.53,10.53,0,0,0-5.64,6.55c-2,7.72-3.24,13.9-4.18,28.28"/><path class="cls-2" d="M373,267.45a8,8,0,0,1-2,2.44c-4.11,3.31-10.25,6.95-15.51,6.21-15.9-2.26-11-26.44-11-26.44,2.06-10.75,14.12-11.56,14.12-11.56,9.1-.92,17.49,1.74,19.06,8.86.6,2.72,0,5.74-.16,8.51a17.77,17.77,0,0,1-1.2,6.08C375.44,263.58,374,265.47,373,267.45Z"/><path class="cls-10" d="M360.27,247.48c1.5,0,3.77-.44,5.21,0,1.67.5,1.78,1.65,2.34,3.45a45.47,45.47,0,0,1,2.26,9.44,38.17,38.17,0,0,1-.19,10.76c5.11-2,7.13-8.7,8-14,.81-4.74,2.56-12.81-1.74-16.31-2.76-2.25-5.87-5.88-9.27-6.72-5.13-1.28-12.29.08-16.34,3.7-1.68,1.5-4,5-2.08,7.23S357.61,247.48,360.27,247.48Z"/><path class="cls-2" d="M369.89,262.91s0-7.82,5.34-5.28c0,0,2.09,1.23.42,4.63,0,0-2.24,4.49-5.76,2.61Z"/><path class="cls-2" d="M365.27,350.62c-1.91-2.64-.23-3.34,1.66-4.94,1.45-1.22,1.36-.9,2.79-2.2a3.63,3.63,0,0,1-2.83.72c-1.52-.35-.93-1.91-.93-1.91l4.46-1.36c.92-.26,1.83-.6,2.77-.82a6.42,6.42,0,0,1,3.6.37,3.22,3.22,0,0,1,1.44,4.58c-.83,1.49-2.33,2.56-3.49,3.78C374.74,348.84,369.43,353.19,365.27,350.62Z"/><path class="cls-11" d="M371.14,282.89s6.68-2,10.72,5.77c0,0,8.71,13.36,11.51,26.13,1.77,7.73-6,21.16-14.7,29.79,0,0-1.59-3.36-4.22-4.58,0,0,2.58-11.42,4.69-24.15,0,0-10.62-19.64-10.89-25.71C368.25,290.14,367.27,285.31,371.14,282.89Z"/><path class="cls-15" d="M521.88,312.56c-.66,1.15-1.32,2.31-2,3.46-.39.77-.83,1.48-1.27,2.25a8.93,8.93,0,0,1-2.19-1.32c.44-.71.88-1.48,1.32-2.19.65-1.16,1.31-2.36,2-3.52C518.91,312.67,521.11,314,521.88,312.56Z"/><path class="cls-15" d="M525.06,306.69c-.39.71-.77,1.48-1.21,2.25-.66,1.21-1.32,2.41-2,3.62.82-1.43-1.38-2.74-2.2-1.32.66-1.15,1.32-2.3,1.92-3.45.44-.77.88-1.54,1.26-2.31a9.72,9.72,0,0,1,1.27.55C524.45,306.25,524.78,306.47,525.06,306.69Z"/><path class="cls-15" d="M525.06,306.69c-.28-.22-.61-.44-.93-.66a9.72,9.72,0,0,0-1.27-.55,6.74,6.74,0,0,0-7.9,3,.18.18,0,0,0-.05.11.05.05,0,0,0-.06.05c0,.06-.05.06-.05.11a6.67,6.67,0,0,0,.22,6.64,6.34,6.34,0,0,0,1.37,1.59,8.93,8.93,0,0,0,2.19,1.32,8.46,8.46,0,0,0,2.31.38h.22a6.53,6.53,0,0,0,5.54-3.35v-.05s0-.06.05-.06A6.8,6.8,0,0,0,525.06,306.69Zm-7.9,3.13.55.38-.61-.33A.05.05,0,0,1,517.16,309.82Z"/><path class="cls-15" d="M563.68,201.91a265.45,265.45,0,0,1-12.12,56.78,314.23,314.23,0,0,1-24.86,56.5,6.8,6.8,0,0,0-1.64-8.5c-.28-.22-.61-.44-.93-.66a9.72,9.72,0,0,0-1.27-.55,6.74,6.74,0,0,0-7.9,3c2.31-4.06,4.45-8.12,6.59-12.29,18.05-35.66,28-72.31,29.62-108.85.93-20.4-.55-38.56-4.5-55.46a173.4,173.4,0,0,0-19.25-48.39C508.93,51.92,481,29.09,448.75,19.16a122.89,122.89,0,0,0-95.52,9.72c-27.7,15.36-50.69,41-64.68,72.25a6.21,6.21,0,0,1-4.33,3.62h-3.4a6.39,6.39,0,0,1-4.5-3.84,165.11,165.11,0,0,0-9.71-18.49c-15-24.63-35.61-44-59.64-56.07a121,121,0,0,0-54.25-12.78,123.87,123.87,0,0,0-27.65,3.13c-27.93,6.52-53.88,22.82-73,45.86C33.72,84.83,21.22,112.65,16,142.93c-4.93,29.41-3,62.49,5.49,95.57,6.91,27.1,18.43,53.87,34.12,79.55,10.1,16.51,22.55,33.9,39.06,54.64a822.27,822.27,0,0,0,55.25,62.1,686.36,686.36,0,0,0,65.56,59.09c23.37,18.43,45.31,32.8,67,44,19.86-10.21,40.05-23.27,61.61-39.78,35.61-27.26,69.62-59.63,104.13-99.08,20.68-23.64,47-55.35,66.6-90.3a6.67,6.67,0,0,0,.22,6.64,6.34,6.34,0,0,0,1.37,1.59,8.93,8.93,0,0,0,2.19,1.32,8.46,8.46,0,0,0,2.31.38h.22a6.53,6.53,0,0,0,5.54-3.35c-3,5.27-6.26,10.7-10.1,16.68-17.39,27-38.95,54.7-65.94,84.65-31,34.51-61.5,63.37-93.21,88.22A460.86,460.86,0,0,1,306.55,540c-4.45,2.58-8.84,5.11-13.28,7.47l-2.08,1.09c-1.7.94-3.35,1.87-5.11,2.64a9.12,9.12,0,0,1-8.45-.61l-.65-.38c-9.17-4.66-17.94-9.66-26.17-14.87-32.37-20.13-64.79-46.25-99.19-79.82a810.56,810.56,0,0,1-79.49-89.86C47,332.48,29.88,302.91,18.31,272.73A272.65,272.65,0,0,1,1.52,203.88c-2.69-25.62-1.81-49.37,2.63-70.71C13.86,87,39.76,47.14,75.2,23.72c38-25.13,84.92-30.67,125.63-14.81C234.57,22,263.81,48.68,282.41,83c17.72-32.58,44.71-58.09,76.09-71.81C392-3.44,431-3.6,465.59,10.88,499.05,24.82,527.2,52,544.81,87.25,561.54,120.71,567.85,159.28,563.68,201.91Z"/><path class="cls-15" d="M521.88,312.56c-.77,1.43-3,.11-2.2-1.32S522.7,311.13,521.88,312.56Z"/><path class="cls-15" d="M525.06,306.69c-.28-.22-.61-.44-.93-.66a9.72,9.72,0,0,0-1.27-.55,6.74,6.74,0,0,0-7.9,3,.18.18,0,0,0-.05.11.05.05,0,0,0-.06.05c0,.06-.05.06-.05.11a6.67,6.67,0,0,0,.22,6.64,6.34,6.34,0,0,0,1.37,1.59,8.93,8.93,0,0,0,2.19,1.32,8.46,8.46,0,0,0,2.31.38h.22a6.53,6.53,0,0,0,5.54-3.35v-.05s0-.06.05-.06A6.8,6.8,0,0,0,525.06,306.69Zm-.61,7.24-2.57-1.37L524.4,314a4.28,4.28,0,0,1-4.55,2,3.27,3.27,0,0,1-1.21-.44,2.67,2.67,0,0,1-.93-.82,4.21,4.21,0,0,1-.61-4.89.05.05,0,0,1,.06-.05,4.41,4.41,0,0,1,3.62-2.14,2.11,2.11,0,0,1,.82.11,3.72,3.72,0,0,1,2.25,1.15,2.28,2.28,0,0,1,.55.66A4.34,4.34,0,0,1,524.45,313.93Z"/><path class="cls-16" d="M399.89,155.15,364.32,153l-22.88-1.36c5-4.56,9.4-8.65,10.45-9.73a6.79,6.79,0,0,0-9.77-9.44c-1.65,1.72-17.09,15.79-26.44,24.26a6.79,6.79,0,0,0,.42,10.41l28.76,22.17a6.79,6.79,0,0,0,8.29-10.76l-11.77-9.07L399.89,166A5.45,5.45,0,0,0,399.89,155.15Z"/></g></g></svg>