<svg xmlns="http://www.w3.org/2000/svg" viewBox="0 0 664.76 372.27"><defs><style>.cls-1{fill:#db8b56;}.cls-2{fill:#683b11;}</style></defs><g id="Capa_2" data-name="Capa 2"><g id="Capa_1-2" data-name="Capa 1"><path class="cls-1" d="M111.08,358.36l73-87.78C144.57,237.75,107.9,187.13,115,148.05c1.75-9.64,6.9-23.44,31.27-31.91,22.52-7.82,48.59,9.88,98.72,49.26C297.52,206.67,362.9,258,450.73,257.77c77.08-.23,141-36.83,180-103.06,27.22-46.23,33.41-91.61,34-96.63L551.46,44.16l.06-.41c0,.29-4.14,28.86-20.65,55.52-18.67,30.15-44.25,44.24-80.48,44.35-48.17.15-90.29-32.95-134.89-68-54.7-43-122.79-96.45-206.68-67.32-57.29,19.9-96,63.4-106.13,119.34C-11.2,204.13,29.32,290.37,111.08,358.36Z"/><rect class="cls-2" x="635.87" y="52.95" width="40.21" height="5.81" transform="translate(492.38 693.55) rotate(-80.48)"/><rect class="cls-2" x="599.92" y="47.53" width="40.21" height="5.81" transform="translate(468.5 653.77) rotate(-80.55)"/><rect class="cls-2" x="624.65" y="51.07" width="40.21" height="5.81" transform="translate(485.67 681.12) rotate(-80.55)"/><rect class="cls-2" x="611.51" y="49.46" width="40.21" height="5.81" transform="translate(476.28 666.82) rotate(-80.55)"/><rect class="cls-2" x="589.05" y="45.42" width="40.21" height="5.81" transform="translate(461.49 641.27) rotate(-80.55)"/><rect class="cls-2" x="553.09" y="40" width="40.21" height="5.81" transform="translate(436.07 601.1) rotate(-80.48)"/><rect class="cls-2" x="577.82" y="43.54" width="40.21" height="5.81" transform="translate(453.21 628.45) rotate(-80.48)"/><rect class="cls-2" x="564.68" y="41.93" width="40.21" height="5.81" transform="translate(444.57 614.33) rotate(-80.55)"/><rect class="cls-2" x="541.25" y="37.52" width="40.21" height="5.81" transform="translate(428.63 587.36) rotate(-80.48)"/><rect class="cls-2" x="177.91" y="263.31" width="5.81" height="40.21" transform="translate(-152.56 240.01) rotate(-50.05)"/><rect class="cls-2" x="154.99" y="291.54" width="5.81" height="40.21" transform="translate(-182.39 232.55) rotate(-50.05)"/><rect class="cls-2" x="170.59" y="272.04" width="5.81" height="40.21" transform="translate(-161.86 237.53) rotate(-50.05)"/><rect class="cls-2" x="162.55" y="282.54" width="5.81" height="40.21" transform="translate(-172.79 235.12) rotate(-50.05)"/><rect class="cls-2" x="147.66" y="299.85" width="5.81" height="40.21" transform="translate(-191.38 229.9) rotate(-50.05)"/><rect class="cls-2" x="124.76" y="328.08" width="5.81" height="40.21" transform="matrix(0.64, -0.77, 0.77, 0.64, -221.22, 222.45)"/><rect class="cls-2" x="140.35" y="308.57" width="5.81" height="40.21" transform="translate(-200.69 227.42) rotate(-50.05)"/><rect class="cls-2" x="132.3" y="319.07" width="5.81" height="40.21" transform="translate(-211.62 225.01) rotate(-50.05)"/><rect class="cls-2" x="116.61" y="337.03" width="5.81" height="40.21" transform="translate(-231 219.41) rotate(-50.05)"/></g></g></svg>