<svg xmlns="http://www.w3.org/2000/svg" viewBox="0 0 478.91 289.49"><defs><style>.cls-1{fill:#23567c;}.cls-2{fill:#1d70b7;}.cls-3{fill:#fff;}.cls-4{fill:#be49c1;}.cls-5{fill:#009245;}</style></defs><g id="Capa_2" data-name="Capa 2"><g id="Capa_1-2" data-name="Capa 1"><path class="cls-1" d="M102.42,241.18s21.66.15,29.59-.87,92.14-166,92.14-166-4-9.29-18-27.81C197.2,34.74,16.84,51.17,16.84,51.17S6.78,68.92,1.94,79,102.42,241.18,102.42,241.18Z"/><path class="cls-2" d="M226.34,83l1.75,75.84c.33,14.51-11,33.34-25.32,42.05L144.91,236c-14.32,8.72-26.2,4-26.53-10.5l-1.75-75.84c-.33-14.51,11-33.33,25.32-42l57.86-35.2C214.13,63.74,226,68.44,226.34,83Z"/><path class="cls-2" d="M112.67,149.82l1.75,75.84c.33,14.51-11.32,19.76-26,11.71L29,204.87C14.28,196.82,2.09,178.54,1.75,164L0,88.19C-.33,73.68,11.32,68.43,26,76.48L85.44,109C100.15,117,112.34,135.31,112.67,149.82Z"/><path class="cls-2" d="M200.92,67l-64.81,39.43c-12.4,7.55-34.37,7.14-49.08-.9L27.62,73.06c-14.71-8-16.57-20.68-4.17-28.22L88.25,5.4c12.4-7.54,34.38-7.14,49.08.91l59.41,32.5C211.45,46.86,213.32,59.49,200.92,67Z"/><polygon class="cls-3" points="201.09 136.38 184.61 136.88 181.52 117.47 169.21 140.36 151.26 147.65 160.13 161.3 152.13 185.21 169.91 170.75 182.92 178.25 185.04 155.66 201.09 136.38"/><path class="cls-3" d="M85.26,192.05c-5.69-3.11-10.18-.38-10,6.11s4.88,14.27,10.57,17.38,10.19.38,10-6.11S91,195.17,85.26,192.05Z"/><path class="cls-3" d="M83,134.76c-5.7-3.11-10.19-.38-10,6.11s4.89,14.27,10.58,17.38,10.18.38,10-6.1S88.73,137.88,83,134.76Z"/><ellipse class="cls-3" cx="33.83" cy="175.51" rx="8.31" ry="14.39" transform="translate(-86.3 43.15) rotate(-31.32)"/><path class="cls-3" d="M31.33,106.48c-5.69-3.12-10.19-.38-10,6.1S26.18,126.85,31.87,130s10.18.38,10-6.11S37,109.59,31.33,106.48Z"/><path class="cls-3" d="M106.94,60.85c-5.69-3.11-5.81-8.37-.27-11.74s14.65-3.59,20.35-.47,5.81,8.37.27,11.74S112.63,64,106.94,60.85Z"/><path class="cls-4" d="M403.39,245.18l.81,3.79,1.69,2.9a26.89,26.89,0,0,0,5.47,5.87,35.41,35.41,0,0,0,11.08,5.74,49.5,49.5,0,0,0,14.88,2.12,66.22,66.22,0,0,0,15.82-1.94A39.35,39.35,0,0,0,466,258.05a47.36,47.36,0,0,0,9.18-8.46,18.43,18.43,0,0,0,3.41-5.47c.45-1.25.48-2,0-6.51l-2.76-19.51a138.43,138.43,0,0,0-4-17.32,83,83,0,0,0-4.59-11.73,41.41,41.41,0,0,0-5-7.85l-8.09-10.09-6-8.58a16,16,0,0,1-2.05-5.32,9,9,0,0,1,.12-4.2l2.35-5,4.18-6.6a36.86,36.86,0,0,0,4.3-8,26.81,26.81,0,0,0,1-9.1,30.31,30.31,0,0,0-1.58-10.37,24.86,24.86,0,0,0-6.12-8.6,33.77,33.77,0,0,0-7.82-5.7,25.83,25.83,0,0,0-8.34-2.71,30.36,30.36,0,0,0-17.64,2.77,32.43,32.43,0,0,0-7.25,4.74,24.89,24.89,0,0,0-4.92,5.83,27.16,27.16,0,0,0-3.11,7.31,30.61,30.61,0,0,0-1,8.87,23.43,23.43,0,0,0,1.64,7.18l2.59,5.58,3.64,5.2,4.73,4.17,3.38,3.48,1.47,3.58.78,3.78-.12,4.4-1.69,5.27-2.88,6.24-4.2,8-4.23,9.24a41.31,41.31,0,0,0-3.48,11.16c-.62,4.48-.43,10-.24,15.53l.69,15.53Z"/><path class="cls-5" d="M264.78,251.92l-.11,4.92,1.23,4.09a34.24,34.24,0,0,0,5,8.87,45.48,45.48,0,0,0,12,10.37,63.23,63.23,0,0,0,17.74,7,83.67,83.67,0,0,0,20.12,2.28,50,50,0,0,0,17.53-3.12,60.25,60.25,0,0,0,13.84-7.73,23.22,23.22,0,0,0,5.84-5.76c.92-1.4,1.19-2.37,1.88-8l2.38-24.91a173.5,173.5,0,0,0,.13-22.6,105,105,0,0,0-2.19-15.84,52.13,52.13,0,0,0-3.82-11.18l-7-14.86a94.52,94.52,0,0,1-4.88-12.38,20.33,20.33,0,0,1-1-7.17,11.49,11.49,0,0,1,1.4-5.16,27.55,27.55,0,0,1,4.38-5.48l7.11-6.91c2.71-2.57,5.7-5.42,7.69-8.64s3-6.81,3.93-10.94,1.73-8.81,1.12-13.28a31.58,31.58,0,0,0-5-12.44,43.22,43.22,0,0,0-8-9.35,32.85,32.85,0,0,0-9.5-5.82,38.71,38.71,0,0,0-22.61-1.8,41.52,41.52,0,0,0-10.36,3.7,31.54,31.54,0,0,0-7.8,5.75,34.13,34.13,0,0,0-6,8.11,38.53,38.53,0,0,0-3.9,10.65,29.52,29.52,0,0,0-.1,9.36l1.55,7.65a33.94,33.94,0,0,0,2.95,7.51l4.61,6.55a21.9,21.9,0,0,1,3.15,5.3,15.09,15.09,0,0,1,.75,4.86l-.15,4.9a18.16,18.16,0,0,1-1.45,5.4l-3.66,6-5.4,6.86-7.55,8.6-8,10.16a52.11,52.11,0,0,0-7.6,12.75c-2.1,5.36-3.5,12.26-4.9,19.11l-3.75,19.39Z"/></g></g></svg>