<svg xmlns="http://www.w3.org/2000/svg" xmlns:xlink="http://www.w3.org/1999/xlink" viewBox="0 0 711.11 545.68"><defs><style>.cls-1{fill:none;}.cls-2{fill:#609e3e;}.cls-3{fill:#fce0c3;}.cls-4{fill:#dd0e1d;}.cls-5{fill:#4d7c2e;}.cls-6{fill:#773a07;}.cls-7{fill:#428a1c;}.cls-8{fill:#e8ac0f;}.cls-9{clip-path:url(#clip-path);}.cls-10{fill:#de7b00;}</style><clipPath id="clip-path"><path class="cls-1" d="M427.39,252.59c0,60.25-38.11,91.36-85.12,91.36s-85.13-31.11-85.13-91.36,38.11-126.82,85.13-126.82S427.39,192.34,427.39,252.59Z"/></clipPath></defs><g id="Capa_2" data-name="Capa 2"><g id="Capa_1-2" data-name="Capa 1"><path class="cls-2" d="M661.05,389.69c1.79-1.05-2.83-16.9-14-13.62-3.39,1-7.54,4.9-9,10.89-6.33-5.72-14.29-8-20.69-5.82s-11,8.6-12.12,16.8c-6.5-3.73-13.75-3.69-18.88.1s-8,11.22-7.51,19.37c-5.36-3.75-18.7-.15-15.89,20.68,0,0-22.76-9.22-26.14,25.51-1.63,16.77-1.89,17.49-10.17,38.57-2.16,5.51-3.12,8.77-.3,14.09a10.6,10.6,0,0,0,9.17,5.59c10.47.49,16.22,1.27,30.26,8.59,8,4.16,15.6,7.43,23.5,7.52,9,.1,15-8.57,14.5-16.9,4.87,6.88,11.65,11.36,18.33,10.76,5.72-.53,10.6-5.33,10-12.61,7.43,8.57,22.56,9.94,28.43,3s5.51-17.31,4.19-23.18c5.56,3.73,13.66,5.4,18.45,1.6,6.32-5,9.91-16.63,3.15-29.74,5.16,3.21,14.39,3,17.4-4.6,2.11-5.34,2-14.11-5-23,0,0,21-16.57,8.14-41.55C696.47,381.45,679.16,379,661.05,389.69Z"/><path class="cls-3" d="M680.74,416.31s-118,92.88-157.17,112.78c-20.26,10.29-30.93,13.6-39,15.46-8.32,1.92-21.82.82-21.82.82l13-28.7s32.22-1.59,80.1-27.85C593.86,468,680.74,416.31,680.74,416.31Z"/><path class="cls-3" d="M663.6,467.94c-3.79-.26-7.49-.84-11.2-1.38s-7.36-1.28-11-2.06c-7.3-1.51-14.51-3.34-21.67-5.36l-3.11-.87.76-3.06c.87-3.48,1.63-7,2.59-10.44s1.85-6.94,2.93-10.37,2.15-6.86,3.31-10.28,2.45-6.8,3.93-10.14c-.1,3.66-.46,7.25-.83,10.84s-.86,7.16-1.44,10.71-1.2,7.08-1.84,10.62-1.46,7-2.18,10.53l-2.34-3.93c7.17,2,14.29,4.15,21.31,6.64,3.52,1.22,7,2.55,10.49,3.93S660.23,466.2,663.6,467.94Z"/><path class="cls-3" d="M628.39,490.17c-3.29-.67-6.47-1.59-9.65-2.51s-6.31-2-9.4-3.09-6.16-2.27-9.23-3.45-6.08-2.46-9.1-3.76l-2.38-1,.45-2.6c.59-3.45,1.27-6.88,2-10.3s1.49-6.83,2.39-10.22,1.8-6.77,2.81-10.14,2.13-6.72,3.5-10c.14,3.58,0,7.09-.19,10.61s-.51,7-.89,10.49-.88,6.94-1.32,10.41-1.08,6.9-1.72,10.34l-1.93-3.63c3,1.34,6,2.7,8.92,4.16s5.89,2.89,8.78,4.48,5.77,3.18,8.62,4.84S625.67,488.2,628.39,490.17Z"/><path class="cls-3" d="M597.08,504.52c-3-.27-6-.75-9-1.27s-5.89-1.11-8.79-1.82-5.8-1.4-8.67-2.2-5.74-1.59-8.58-2.48l-2.71-.84.45-2.88c.94-6,2.2-11.92,3.68-17.81.76-3,1.59-5.88,2.52-8.79a89.17,89.17,0,0,1,3.25-8.67,89.49,89.49,0,0,1,.15,9.25q-.15,4.59-.56,9.13c-.59,6.05-1.38,12.06-2.5,18l-2.26-3.72c2.83.94,5.64,1.92,8.43,3s5.57,2.1,8.32,3.28,5.49,2.37,8.21,3.63S594.45,503,597.08,504.52Z"/><path class="cls-2" d="M585.83,244.45c1.6-2.15-11.71-18.65-23.3-9.25-3.52,2.86-6.51,9.53-5.26,17.36-10.34-3.66-20.89-2.38-27.41,3.32s-8.86,15.67-6.07,25.91c-9.55-1.19-18.13,2.44-22.34,9.47s-4,17.27.67,26.67c-8.21-1.78-22.24,9.08-8.61,32.39,0,0-31.55.32-18.38,43.19,6.35,20.68,6.41,21.67,7,50.75.15,7.61.63,11.95,6.61,16.86a13.62,13.62,0,0,0,13.64,2.1c12.66-4.6,19.86-6.52,40.13-4.78,11.52,1,22.17,1.09,31.58-2.71,10.7-4.32,13.51-17.56,8.84-27.22,9.18,5.77,19.43,7.73,27.06,3.7,6.52-3.45,9.93-11.56,5.57-19.87,13.06,6.48,31.67.62,35.18-10.54s-2-23.24-6.48-29.55c8.43,1.67,18.87-.35,22.67-7.23,5-9.07,3.51-24.62-11-36.82,7.7,1.26,18.55-3.51,18.35-14.06-.15-7.38-4.65-17.71-17.24-24.81,0,0,16.74-30.06-10.89-53.31C623.76,217.15,602,222.81,585.83,244.45Z"/><path class="cls-3" d="M622.34,266.28s-94,168.47-130.6,211.47c-18.93,22.21-29.94,31.41-38.56,37.59-8.92,6.39-25.47,11.77-25.47,11.77l1.23-40.46s37.41-17.82,81.2-72.65C544.87,370.52,622.34,266.28,622.34,266.28Z"/><path class="cls-3" d="M627.56,336c-4.62,1.56-9.3,2.71-14,3.9s-9.37,2.12-14.07,3c-9.41,1.82-18.86,3.21-28.35,4.37l-4.11.5-.61-4c-.69-4.56-1.53-9.09-2.1-13.67s-1.24-9.14-1.66-13.74-.84-9.21-1.15-13.83-.46-9.27-.36-14c1.69,4.39,3,8.83,4.38,13.27s2.52,8.92,3.58,13.41,2.09,9,3.08,13.5,1.74,9.05,2.63,13.57l-4.73-3.5c9.48-1.19,19-2.15,28.56-2.67,4.78-.3,9.57-.44,14.38-.52S622.69,335.57,627.56,336Z"/><path class="cls-3" d="M596.79,379.75c-4.23.83-8.46,1.31-12.68,1.79s-8.45.79-12.67,1-8.44.35-12.65.47-8.44.09-12.65,0L542.8,383l-.75-3.3c-1-4.38-1.9-8.78-2.75-13.19s-1.62-8.83-2.23-13.29-1.21-8.93-1.68-13.42-.8-9-.8-13.61c1.93,4.16,3.45,8.43,5,12.68s2.87,8.55,4.13,12.87,2.4,8.67,3.6,13,2.12,8.72,3.07,13.11l-4.09-3.35c4.21.11,8.42.24,12.63.53s8.42.51,12.63,1,8.42.92,12.62,1.48S592.6,378.76,596.79,379.75Z"/><path class="cls-3" d="M566.77,412.25c-3.74,1.18-7.5,2.08-11.27,2.93s-7.54,1.59-11.32,2.18-7.58,1.21-11.37,1.69-7.6.95-11.41,1.3l-3.62.34-.89-3.63c-1.85-7.57-3.28-15.23-4.45-22.95-.55-3.87-1-7.75-1.35-11.67a111.44,111.44,0,0,1-.44-11.88,114.34,114.34,0,0,1,4.75,10.89c1.4,3.68,2.67,7.38,3.85,11.11,2.3,7.46,4.33,15,6,22.6l-4.51-3.3c3.81-.28,7.63-.51,11.46-.62s7.65-.27,11.49-.24,7.68.1,11.53.25S562.89,411.71,566.77,412.25Z"/><path class="cls-4" d="M0,387.41c0,98.94,61.52,164.24,108.45,131.28C150.31,551,216.9,490.15,216.9,387.41c0-59.89-51.37-85.61-104.65-70.39C51.37,301.8,0,327.52,0,387.41Z"/><path class="cls-5" d="M46.51,302.29c23.89,20,61.94,13.78,61.94,13.78s-.64-38.58-24.53-58.51S22,243.78,22,243.78,22.62,282.36,46.51,302.29Z"/><path class="cls-6" d="M116.71,323.77c0-.24-2.43-25.85,7-41.38,10.75-17.78,33.23-19.54,33.42-19.54a8.19,8.19,0,1,0-.16-16.38c-1.13,0-27.91.55-43.33,26.07-12.9,21.35-5.69,51.95-5.38,53.25C109.22,330,117.78,328.17,116.71,323.77Z"/><path class="cls-7" d="M340.28,76.51c-4.63-3.36-3.15-33.43-4.25-45.17A133.34,133.34,0,0,0,328.87,0s19.36,11.26,28.37,33.37c5.5,13.49,11.22,39.69,6.18,41.27S344.92,79.87,340.28,76.51Z"/><path class="cls-7" d="M366.74,97.06c5.94-1.2,9.48-34.6,14.16-47.09C387.55,32.17,416.13,20,416.13,20s-29.91-2.46-51.22,18c-14.53,14-28,51.63-23.06,56.18S360.8,98.25,366.74,97.06Z"/><path class="cls-7" d="M331,94.19C325.1,93,318.64,65.32,314,52.82a130.06,130.06,0,0,0-17-31s24,1.88,40.16,21.58c9.89,12,23.67,43.46,18.77,48S337,95.38,331,94.19Z"/><path class="cls-7" d="M362.14,114.9c6.06.13,18.38-25.47,25.66-36.66a130.3,130.3,0,0,1,23.32-26.58S387.31,48.28,367.22,64c-12.26,9.58-32.55,37.26-28.76,42.77S356.09,114.77,362.14,114.9Z"/><path class="cls-7" d="M331.35,120.82c-6.05,0-17.91-29.7-24.84-41.11-9.87-16.23-38.11-25.27-38.11-25.27s28.92-8,53.69,8.11c16.9,11,37.14,45.47,33.18,50.86S337.41,120.88,331.35,120.82Z"/><path class="cls-7" d="M334.76,134.84c-8-6.57-2.81-33.23-.93-44.88a171.39,171.39,0,0,0,2-32.61s11.66,13.49,19,36.21c4.48,13.87,8.24,40.42,3.09,41.62S343,141.58,334.76,134.84Z"/><path class="cls-7" d="M364.6,137.44c11.52-1,17.5-16.41,24.82-24.7a90.47,90.47,0,0,1,22.86-18.36s-21.49-8.38-40.76,1c-11.76,5.75-31.94,25.76-28.81,31.51S358.91,138,364.6,137.44Z"/><path class="cls-7" d="M326.15,137.44c-11.53-1-17.51-16.41-24.82-24.7a90.61,90.61,0,0,0-22.87-18.36s21.49-8.38,40.76,1c11.76,5.75,31.94,25.76,28.81,31.51S331.83,138,326.15,137.44Z"/><path class="cls-8" d="M427.39,252.59c0,60.25-38.11,91.36-85.12,91.36s-85.13-31.11-85.13-91.36,38.11-126.82,85.13-126.82S427.39,192.34,427.39,252.59Z"/><g class="cls-9"><path class="cls-10" d="M425.69,261.06l-10.88,10.87L399.6,256.76l16.3-16.33,9.79,9.79,2.71-2.75-9.76-9.79,7.47-7.47-2.74-2.71L415.9,235l-15.49-15.52,14.87-14.87,1.39,1.4,2.75-2.75-1.4-1.4,1.4-1.39-2.75-2.71-1.36,1.36-13.39-13.4,6.08-6.07-2.75-2.71L399.17,183,384,167.81l10.53-10.53-2.75-2.75-10.53,10.53-15.37-15.33L377,138.66l-2.74-2.74L363.18,147l-14.87-14.87,4.18-4.18-2.75-2.75-4.14,4.18L341,124.81l-2.7,2.74,4.52,4.53L328,147,313.71,132.7,311,135.45l14.28,14.28-16.33,16.34L293.7,150.82,291,153.57l15.21,15.25L292.07,183l-10.68-10.69L278.64,175l10.68,10.68-13.43,13.48-5.3-5.31-2.75,2.75,5.3,5.3-13,13,2.71,2.75,13-13,14.9,14.91-15.48,15.44-13.2-13.2-2.75,2.75,13.2,13.2-17.07,17.11,2.75,2.71,17.07-17.07,15.37,15.36L275.46,271l-13.78-13.78L258.94,260l13.78,13.78-12.58,12.58,2.71,2.71,12.58-12.58,15.13,15.14-17,17.07,2.75,2.71,17-17,13.39,13.39L287.46,327l2.75,2.74,19.24-19.27L324.93,326l-12.46,12.46,2.75,2.71,12.42-12.46,16.26,16.26,1.32-1.32,1.7,1.7,16.6-16.6,12,12.08,2.75-2.75L366.23,326l15.49-15.48,15.36,15.36,2.75-2.74-15.37-15.37,13.44-13.43,14.28,14.28,2.71-2.75L400.64,291.6l14.13-14.17,7.9,7.9,2.75-2.75-7.9-7.9,10.88-10.87Zm-12.5-23.38L396.85,254l-15.48-15.48,16.29-16.33Zm-70.3,1.59-13.43,13.47-15.13-15.18,13.43-13.43Zm-12.42-17.89,14.13-14.13,15.17,15.14-14.13,14.17ZM345.64,242,359,255.41,345.6,268.84l-13.39-13.4Zm2.71-2.74,14.13-14.13,13.39,13.39L361.74,252.7Zm16.88-16.88,16.33-16.34L395,219.49l-16.33,16.29Zm-2.71-2.75-15.18-15.13,16.34-16.34,15.13,15.17Zm-17.89-17.88-15.36-15.37,16.29-16.3,15.37,15.37Zm-2.74,2.75-14.13,14.16-15.37-15.36,14.13-14.17ZM325,221.38l-13.43,13.47-15.37-15.4L309.68,206Zm1.7,34.1-15.48,15.45-15.14-15.14,15.49-15.48Zm2.75,2.71,13.39,13.4-15.48,15.48L314,273.68Zm16.14,16.14,15.45,15.49L345.6,305.3l-15.48-15.48Zm2.75-2.74,13.43-13.44,15.45,15.49-13.44,13.43Zm16.14-16.18,14.13-14.13,15.48,15.48L380,270.89Zm48.08-53.58-14.91,14.91-13.39-13.4,14.9-14.9Zm-16.14-16.1L381.56,200.6l-15.13-15.14,14.86-14.9Zm-33.22-33.29,15.33,15.37-14.86,14.9-15.37-15.36ZM345.6,134.83l14.87,14.87-14.91,14.9L330.7,149.73ZM328,152.48l14.86,14.87-16.33,16.33-14.86-14.9Zm-19.08,19.05,14.86,14.9-14.13,14.13-14.86-14.91Zm-30.31,30.3,13.47-13.43,14.86,14.87L293.5,216.74ZM278,237.68l15.44-15.48,15.37,15.4-15.44,15.45Zm.15,36,15.18-15.18,15.13,15.14-15.17,15.21Zm17.89,17.88,15.17-15.18,13.39,13.4L309.45,305Zm16.14,16.18,15.17-15.21,15.48,15.48-15.21,15.21Zm33.36,33.4L330.39,326l15.17-15.17L360.78,326Zm18-18-15.21-15.17,15.48-15.48L379,307.74ZM381.76,305l-15.22-15.17L380,276.35l15.21,15.21Zm16.14-16.14-15.22-15.21,14.17-14.13,15.21,15.17Z"/></g></g></g></svg>