<svg xmlns="http://www.w3.org/2000/svg" viewBox="0 0 188.06 530.45"><defs><style>.cls-1,.cls-2{fill:#0d5a93;stroke:#0d5a93;stroke-miterlimit:10;}.cls-1{stroke-width:0.25px;}.cls-3{fill:#ececec;}</style></defs><g id="Capa_2" data-name="Capa 2"><g id="Capa_1-2" data-name="Capa 1"><path class="cls-1" d="M166.31,234.69a15.45,15.45,0,0,1,1.15,2.62c1,4.87,4.13,7,9,7.58,3.68.44,5.18,2.37,5,5.11s-2.12,4.26-5.8,4.53a.64.64,0,0,0-.31.13c1,3.93,2.6,7.79,3,11.76.45,4.31,1.24,7.27,6.36,7.73,2.47.22,3.73,3.51,3,5.75a4.83,4.83,0,0,1-6.12,3.18,5.24,5.24,0,0,0-1.06-.09c0,4.49,0,8.9,0,13.32a61.72,61.72,0,0,0,.49,7.45,3,3,0,0,0,1.6,2.14c3.72,1,5.44,2.52,5.28,5.21s-2.23,4.39-6.45,4.67c0,2.16,0,4.36,0,6.56.08,5,.12,10,.37,15a3,3,0,0,0,1.65,2.1c3.15,1.2,4.74,3,4.42,5.46-.36,2.62-2.21,4-5.84,4.41v17.59c4,.72,5.91,2.48,5.86,5.19s-2,4.4-5.77,4.93v17.36a30.52,30.52,0,0,1,4.7,2.79,4.39,4.39,0,0,1,1,2.93c.08,2.59-1.85,4.21-5.71,5v17.05c3.84.72,5.71,2.39,5.75,5.1s-2,4.52-5.94,5.14c0,4.59-.19,9.23.11,13.84.1,1.66,1.57,3.18,2.07,4.86a33.73,33.73,0,0,1,1.71,7.9c.25,7.06.06,14.12.17,21.18.1,5.76-1.83,10.29-7.25,12.85a3.21,3.21,0,0,0-2.2,2.88c-.54,4.84-1.2,9.68-2.18,14.45a7.49,7.49,0,0,1-2.75,4c-8.29,6.18-17.92,9.31-27.82,11.63a182.32,182.32,0,0,1-29.57,4,187.08,187.08,0,0,1-37.64-1.37,180.42,180.42,0,0,1-51.92-15c-7.92-3.67-11.15-10.6-12.17-18.79-.34-2.73-.1-5.52-.41-8.25a3.58,3.58,0,0,0-1.74-2.33c-4.12-2.12-5.23-5.34-5-9.87.4-7.4.18-14.84.06-22.26,0-2.45.36-4.53,2.12-6.34,3.47-3.56,2-8,2.07-12.19a26.81,26.81,0,0,0-.43-3.37c-2.86-.78-5.83-1.87-5.49-5.76.25-2.8,2.09-4.21,5-4.22V403.47c-1.65-1.11-3.22-1.73-4.15-2.88-1.88-2.33-.78-5.69,2-7.17.66-.35,1.56-1.09,1.57-1.66.11-6.16.07-12.32.07-18.43-6.25-1.1-8.25-2.57-8-5.77s2.21-4.34,7.79-4.35V349.13c-6-.4-7.63-1.35-7.78-4.52-.17-3.36,1.71-4.7,8-5.47V319.67a42.47,42.47,0,0,1-6.68-2.05c-.8-.39-1.26-2.13-1.3-3.28-.13-3.33,2.18-4.73,8.5-5.26.28-7,.56-14,.82-20.57a47.19,47.19,0,0,1-5.23-3.58c-.57-.5-.64-1.82-.57-2.73.21-2.79,2.08-4.13,6.45-4.81.28-5.21.57-10.44.84-15.22a44,44,0,0,1-6.18-2.33A3.56,3.56,0,0,1,3.66,257c.24-5.17,4.57-5,7.32-5.68l4.81-12.2c-1.14-1.07-2.53-1.95-3.29-3.21a4.46,4.46,0,0,1,2.05-6.32,4.38,4.38,0,0,1,1.74-.61c4.55-.14,6.77-2.86,7.69-7.08-3.21-3.33-3.4-7.73,2.72-9.69a5.73,5.73,0,0,0,3.87-3.59c.95-2.38,2.11-4.67,3-6.69A19.6,19.6,0,0,1,31,198.18c-1.13-2.86.79-5.64,4.58-6.32A5.56,5.56,0,0,0,40.32,188c.72-1.91,1.7-3.72,2.6-5.64-2.52-.85-4.18-2.61-4-5.22a4.68,4.68,0,0,1,4.23-4.54c4.65-.46,6.76-3.28,7.81-7.56a12.37,12.37,0,0,0-2.05-2.14c-4.73-3.08-5.45-7.69-4.65-12.67.3-1.81,1.64-3.46,2.47-5.19a7.14,7.14,0,0,0,1.11-2.62c.09-7.41.05-14.82.05-22.37-1.58,1.28-3.42,2.72-5.2,4.22-4.63,3.92-9.19,7.92-13.9,11.73a4.59,4.59,0,0,1-3.55,1c-6.78-2.2-12.59-5.77-14.38-13.26-1.32-5.55-.9-10.68,3.7-15.18q21.57-21.09,42.65-42.7c1.39-1.41,1.94-3.9,2.32-6,3-16.59,5.89-33.2,8.89-49.79.22-1.2.87-2.79,1.82-3.32C76.75,3.07,83.52,0,91.31.13c8.73.1,14,4.36,15.59,12.88a9.86,9.86,0,0,1,.37,1.81c0,2.4,1.11,3.15,3.51,3a9.15,9.15,0,0,1,7.08,3.1C125,28.09,132,35.32,139.52,42c6.5,5.83,13.55,11,20.38,16.48,3.36,2.68,3.53,9.22.27,11.9a10.59,10.59,0,0,1-.84.66c-3.19,2-5,6.78-10.11,4.72-3.66-1.48-7.72-2.33-10.94-4.47C131.1,66.56,124.34,61.16,117.4,56c-.49-.37-1-.67-2.2-1.43,1,4.24,1.89,7.85,2.78,11.46q4.59,18.72,9.19,37.45a7.06,7.06,0,0,1,.12,1.6c.19,10.45.32,20.91.61,31.36,0,1.29,1,2.54,1.41,3.84a28.91,28.91,0,0,1,1.34,4.94c.19,1.48-.22,3-.14,4.54.16,2.89-.6,5.29-3.14,6.9-1.42.89-1.36,1.79-.33,3a22,22,0,0,1,2.42,3.84,7.25,7.25,0,0,0,5.82,4.22c5.75.83,6.4,6.28,2.45,9.49,1.38,2.5,2.75,5.08,4.25,7.58a3,3,0,0,0,1.71,1c2.14.54,4.3,1,6.46,1.45,2.59.55,4.13,1.95,4,4.78s-1.3,4.12-4.37,4.82l-1.3.31c1.2,2.43,2.28,4.74,3.49,7a3.31,3.31,0,0,0,1.65,1.17,13.07,13.07,0,0,0,2.35.49c2.75.45,5.36,1.66,5.35,4.6,0,1.92-1.74,3.84-3.13,6.63a43,43,0,0,0,3.07,6.26c.6.92,2.39,1.31,3.69,1.48,2.68.35,4.65,1.52,5.16,4.22S169,233.48,166.31,234.69Zm-44.94-95.62c0-11.42,0-22.66,0-33.91a3.12,3.12,0,0,0-.17-.78c-4-16.33-8.33-32.6-12-49-3.07-13.55-5.46-27.26-8.14-40.9-.55-2.83-1-5.87-4.13-6.9-2.48-.8-5.32-1.76-7.72-1.28-4.56.9-8.94,2.71-13.33,4.33a3.46,3.46,0,0,0-1.67,2.32c-2.93,15.87-5.84,31.74-8.58,47.64a19.46,19.46,0,0,1-5.76,11.49C46,85.51,32.43,99.3,18.75,112.91a7.59,7.59,0,0,0-2.54,5.62,11.84,11.84,0,0,0,8.26,11.79,3.24,3.24,0,0,0,2.54-.7c7.12-6,14.13-12,21.29-17.93,1.24-1,3.22-2,4.59-1.75,2.14.44,2,2.78,2,4.71-.28,7-.56,13.92-.79,20.88-.08,2.63,0,5.26,0,8.07C75.91,132.05,98.53,133.08,121.37,139.07ZM18.13,485.46c.28,4,.21,7.66.88,11.2.93,4.86,3.19,9.06,8,11.28a179.52,179.52,0,0,0,74.9,16.28c10.63,0,21.29-1.34,31.88-2.59a87.07,87.07,0,0,0,29.11-8.84c3.82-1.92,6.69-4.16,6.24-8.92,0-.33.23-.67.28-1,.51-3.48,1-7,1.52-10.64a24.08,24.08,0,0,0-2.44,0c-7.48.94-14.94,2.16-22.45,2.78-12.42,1-24.86,2-37.31,2.41a308.22,308.22,0,0,1-44.31-1.93,208,208,0,0,1-36.27-7C25,487.56,21.8,486.57,18.13,485.46ZM118.81,303v-25.3l-53,2.88v24.47ZM65.3,314.81v22h54.06V312.71Zm.41,32.3v21.37l53.22,1.61v-24Zm1.05,57.39v22.82h51.1V405.45Zm-.28-133.66L118,268c-.44-6.16-.9-12.45-1.38-19.17l-48.74,3.25C67.36,258.68,66.92,264.75,66.48,270.84ZM173.83,281l-37.18-3.24c.3,8.86.58,17.09.86,25.17l37.41,1.6C174.56,296.86,174.21,289.24,173.83,281ZM66.18,394.84l52.19,1V379.69l-52.19-1.48Zm109.64,28.75V405.75H136.15v21.58Zm-109,28.31a359,359,0,0,0,50.67.46V438l-50.67-.84ZM47.54,306.3V282.62c-3.77.46-7.46.94-11.15,1.37-6.35.74-12.71,1.4-19,2.27-.64.08-1.53,1.36-1.59,2.13-.32,4.79-.41,9.6-.62,14.41-.08,1.91-.27,3.81-.42,5.87ZM14.42,339.1,47.05,338V316l-32.63,2.42Zm95.2-315.78-.43.92c.85,4.87,1.65,9.76,2.58,14.62.62,3.28.72,6.56,4.23,8.83C121.82,51.44,127.1,56,132.79,60c5,3.51,9.38,8.2,15.85,9.45,2,.38,3.42.41,4.74-1.16a12,12,0,0,1,1.81-1.59c1.63-1.32,1.58-2.69,0-4-2.65-2.25-5.35-4.42-8-6.64-6.65-5.49-13.48-10.79-19.89-16.57-4.82-4.35-9-9.38-13.65-14C112.61,24.48,111,24,109.62,23.32ZM15,421.46l33.41,4.32V403.93L15,403ZM136.19,268l36.65,3.06c.19-5.81-2.29-10.95-4.42-16.19a3.8,3.8,0,0,0-3.57-2.57c-5.31-.6-10.58-1.48-15.89-2-4.66-.44-9.34-.53-14.16-.78C135.3,256.12,135.76,262.2,136.19,268ZM14.12,374c0,5.37.17,10.63-.07,15.86-.14,3,1.13,3.61,3.71,3.64,5.71.07,11.41.4,17.12.51,4.42.09,8.86,0,13,0V377ZM14,348.78c0,4.58.13,8.76-.06,12.93-.1,2.22.82,2.63,2.76,2.79,7.16.6,14.3,1.42,21.45,2.07,3,.28,6.11.34,9.06.49V347.63Zm2.19-72.43a4.39,4.39,0,0,0,.89.13c9.78-1.1,19.56-2.18,29.33-3.37.69-.08,1.82-.87,1.86-1.4.45-5.55.71-11.11,1.05-17.07l-32,5.2C16.94,265.59,16.59,270.89,16.22,276.35ZM136.08,437v14.44l39.61-5.18V433.34ZM114.3,228.85c-14.91-.31-29.63-.13-44.23,1.55-.47,4.24-.89,8.09-1.31,11.88l46.85-3.09C115.19,235.85,114.77,232.53,114.3,228.85ZM15.5,431.37c.26,4,.43,7.79.82,11.59.05.55,1,1.29,1.7,1.44,6.65,1.49,13.31,3,20,4.25,3.43.66,6.93.91,10.56,1.36V435.59ZM52.26,158.76c1.46.11,2.44.46,3.22.2a137,137,0,0,1,32.15-6.55,84.31,84.31,0,0,1,31.38,3.8l1.38-1.69a17.29,17.29,0,0,0-9.2-6.73c-12.72-4.46-25.65-4.24-38.6-1.27C64.91,148.28,58,151.64,52.26,158.76ZM71.54,220,113,218.77c-.41-2.49-1-4.89-1.15-7.33-.13-1.7-.82-2.06-2.34-2.05-7.21.06-14.42-.1-21.63.08-4.41.11-8.83.62-13.23,1.1a2.63,2.63,0,0,0-1.87,1.52C72.18,214.66,71.92,217.29,71.54,220Zm-20,12.59a10,10,0,0,0-1.93-.07q-12.4,2.14-24.8,4.39a2.24,2.24,0,0,0-1.48,1c-1.88,3.87-3.66,7.78-5.63,12l32.65-5.21C50.77,240.5,51.15,236.63,51.55,232.59Zm81.23-2.72c.41,3.67.75,6.66,1.08,9.59L163,242c-2.49-3.67-2-9-8.37-9.37C147.43,232.21,140.24,230.85,132.78,229.87ZM78.31,184.43l27.63-1.63c-.59-2.53-1.09-5.14-1.87-7.65a2.49,2.49,0,0,0-2-1.16q-9.63.24-19.26.76c-.83,0-2.15.63-2.35,1.25C79.56,178.73,79,181.58,78.31,184.43Zm-2.26,10-1.18,6,34.76-1c-.48-2.24-.93-4.36-1.47-6.92Zm54.08,16.39c.36,2.75.69,5,.94,7.31.14,1.3.46,2.13,2,2.19,2.12.06,4.23.4,6.33.66l14.76,1.83c-1.21-2.61-2.25-5-3.44-7.36a2.56,2.56,0,0,0-1.58-1.16C142.94,213.1,136.68,212,130.13,210.81ZM29.16,226c7.52-1.17,14.87-2.26,22.2-3.51a2.85,2.85,0,0,0,1.81-1.82,62.75,62.75,0,0,0,.81-6.27,7,7,0,0,0-1.73,0c-5.7,1.65-11.34,3.59-17.11,4.94C31.4,220.2,30.18,222.72,29.16,226Zm115.64-22.6c-1.31-2.56-2.46-5-3.78-7.26a2.69,2.69,0,0,0-1.77-1.12c-4-.58-8.05-1-12.25-1.57a51,51,0,0,0,1.06,5.89,3.19,3.19,0,0,0,1.93,2C134.77,202.08,139.59,202.66,144.8,203.36Zm-89,.3L57,197.35c-5.42,1.06-10.43,2-15.43,3a1,1,0,0,0-.59.47c-1.16,2.34-2.3,4.69-3.61,7.41Zm-9.41-14.31,12.7-2.15c.63-2.94,1.24-5.81,2-9.21-3.63.9-6.7,1.63-9.73,2.46A2.34,2.34,0,0,0,50,181.59C48.87,183.94,47.79,186.34,46.39,189.35Zm88-5c-3.13-7.78-5.14-9.24-11.44-8.48.66,2.61,1.3,5.19,1.92,7.69Z"/><path class="cls-2" d="M121.37,139.07c-22.84-6-45.46-7-67.3,4.53,0-2.81-.07-5.44,0-8.07.23-7,.51-13.92.79-20.88.07-1.93.16-4.27-2-4.71-1.37-.28-3.35.74-4.59,1.75-7.16,5.9-14.17,12-21.29,17.93a3.24,3.24,0,0,1-2.54.7,11.84,11.84,0,0,1-8.26-11.79,7.59,7.59,0,0,1,2.54-5.62C32.43,99.3,46,85.51,59.82,72.07a19.46,19.46,0,0,0,5.76-11.49c2.74-15.9,5.65-31.77,8.58-47.64a3.46,3.46,0,0,1,1.67-2.32C80.22,9,84.6,7.19,89.16,6.29c2.4-.48,5.24.48,7.72,1.28,3.18,1,3.58,4.07,4.13,6.9,2.68,13.64,5.07,27.35,8.14,40.9,3.71,16.41,8,32.68,12,49a3.12,3.12,0,0,1,.17.78C121.37,116.41,121.37,127.65,121.37,139.07Z"/><path class="cls-2" d="M18.13,485.46c3.67,1.11,6.86,2.1,10.06,3.05a208,208,0,0,0,36.27,7,308.22,308.22,0,0,0,44.31,1.93c12.45-.41,24.89-1.37,37.31-2.41,7.51-.62,15-1.84,22.45-2.78a24.08,24.08,0,0,1,2.44,0c-.52,3.67-1,7.16-1.52,10.64,0,.34-.31.68-.28,1,.45,4.76-2.42,7-6.24,8.92a87.07,87.07,0,0,1-29.11,8.84c-10.59,1.25-21.25,2.63-31.88,2.59A179.52,179.52,0,0,1,27,507.94c-4.84-2.22-7.1-6.42-8-11.28C18.34,493.12,18.41,489.44,18.13,485.46Z"/><path class="cls-3" d="M118.81,303l-53,2.05V280.61l53-2.88Z"/><path class="cls-3" d="M65.3,314.81l54.06-2.1v24.13H65.3Z"/><path class="cls-3" d="M65.71,347.11l53.22-1v24l-53.22-1.61Z"/><path class="cls-3" d="M66.76,404.5l51.1.95v21.87H66.76Z"/><path class="cls-3" d="M66.48,270.84c.44-6.09.88-12.16,1.35-18.73l48.74-3.25c.48,6.72.94,13,1.38,19.17Z"/><path class="cls-3" d="M173.83,281c.38,8.25.73,15.87,1.09,23.53l-37.41-1.6c-.28-8.08-.56-16.31-.86-25.17Z"/><path class="cls-3" d="M66.18,394.84V378.21l52.19,1.48v16.14Z"/><path class="cls-3" d="M175.82,423.59l-39.67,3.74V405.75h39.67Z"/><path class="cls-3" d="M66.78,451.9V437.15l50.67.84v14.37A359,359,0,0,1,66.78,451.9Z"/><path class="cls-3" d="M47.54,306.3l-32.82,2.37c.15-2.06.34-4,.42-5.87.21-4.81.3-9.62.62-14.41.06-.77,1-2.05,1.59-2.13,6.33-.87,12.69-1.53,19-2.27,3.69-.43,7.38-.91,11.15-1.37Z"/><path class="cls-3" d="M14.42,339.1V318.43L47.05,316v22Z"/><path class="cls-2" d="M109.62,23.32c1.36.72,3,1.16,4,2.19,4.62,4.58,8.83,9.61,13.65,14,6.41,5.78,13.24,11.08,19.89,16.57,2.68,2.22,5.38,4.39,8,6.64,1.54,1.29,1.59,2.66,0,4a12,12,0,0,0-1.81,1.59c-1.32,1.57-2.78,1.54-4.74,1.16-6.47-1.25-10.81-5.94-15.85-9.45-5.69-4-11-8.52-16.79-12.27-3.51-2.27-3.61-5.55-4.23-8.83-.93-4.86-1.73-9.75-2.58-14.62Z"/><path class="cls-3" d="M15,421.46V403l33.41.93v21.85Z"/><path class="cls-3" d="M136.19,268c-.43-5.81-.89-11.89-1.39-18.47,4.82.25,9.5.34,14.16.78,5.31.51,10.58,1.39,15.89,2a3.8,3.8,0,0,1,3.57,2.57c2.13,5.24,4.61,10.38,4.42,16.19Z"/><path class="cls-3" d="M14.12,374l33.74,3v17c-4.12,0-8.56.07-13,0-5.71-.11-11.41-.44-17.12-.51-2.58,0-3.85-.66-3.71-3.64C14.29,384.59,14.12,379.33,14.12,374Z"/><path class="cls-3" d="M14,348.78l33.21-1.15v19.43c-3-.15-6-.21-9.06-.49-7.15-.65-14.29-1.47-21.45-2.07-1.94-.16-2.86-.57-2.76-2.79C14.16,357.54,14,353.36,14,348.78Z"/><path class="cls-3" d="M16.22,276.35c.37-5.46.72-10.76,1.11-16.51l32-5.2c-.34,6-.6,11.52-1.05,17.07,0,.53-1.17,1.32-1.86,1.4-9.77,1.19-19.55,2.27-29.33,3.37A4.39,4.39,0,0,1,16.22,276.35Z"/><path class="cls-3" d="M136.08,437l39.61-3.65v12.91l-39.61,5.18Z"/><path class="cls-3" d="M114.3,228.85c.47,3.68.89,7,1.31,10.34l-46.85,3.09c.42-3.79.84-7.64,1.31-11.88C84.67,228.72,99.39,228.54,114.3,228.85Z"/><path class="cls-3" d="M15.5,431.37l33.08,4.22V450c-3.63-.45-7.13-.7-10.56-1.36-6.69-1.28-13.35-2.76-20-4.25-.67-.15-1.65-.89-1.7-1.44C15.93,439.16,15.76,435.34,15.5,431.37Z"/><path class="cls-3" d="M52.26,158.76c5.78-7.12,12.65-10.48,20.33-12.24,13-3,25.88-3.19,38.6,1.27a17.29,17.29,0,0,1,9.2,6.73L119,156.21a84.31,84.31,0,0,0-31.38-3.8A137,137,0,0,0,55.48,159C54.7,159.22,53.72,158.87,52.26,158.76Z"/><path class="cls-3" d="M71.54,220c.38-2.71.64-5.34,1.19-7.91a2.63,2.63,0,0,1,1.87-1.52c4.4-.48,8.82-1,13.23-1.1,7.21-.18,14.42,0,21.63-.08,1.52,0,2.21.35,2.34,2.05.18,2.44.74,4.84,1.15,7.33Z"/><path class="cls-3" d="M51.55,232.59c-.4,4-.78,7.91-1.19,12.1L17.71,249.9c2-4.24,3.75-8.15,5.63-12a2.24,2.24,0,0,1,1.48-1q12.39-2.25,24.8-4.39A10,10,0,0,1,51.55,232.59Z"/><path class="cls-3" d="M132.78,229.87c7.46,1,14.65,2.34,21.89,2.74,6.4.36,5.88,5.7,8.37,9.37l-29.18-2.52C133.53,236.53,133.19,233.54,132.78,229.87Z"/><path class="cls-3" d="M78.31,184.43c.69-2.85,1.25-5.7,2.14-8.43.2-.62,1.52-1.21,2.35-1.25q9.63-.52,19.26-.76a2.49,2.49,0,0,1,2,1.16c.78,2.51,1.28,5.12,1.87,7.65Z"/><path class="cls-3" d="M76.05,194.42l32.11-2c.54,2.56,1,4.68,1.47,6.92l-34.76,1Z"/><path class="cls-3" d="M130.13,210.81c6.55,1.18,12.81,2.29,19.05,3.47a2.56,2.56,0,0,1,1.58,1.16c1.19,2.34,2.23,4.75,3.44,7.36L139.44,221c-2.1-.26-4.21-.6-6.33-.66-1.58-.06-1.9-.89-2-2.19C130.82,215.84,130.49,213.56,130.13,210.81Z"/><path class="cls-3" d="M29.16,226c1-3.24,2.24-5.76,6-6.64,5.77-1.35,11.41-3.29,17.11-4.94a7,7,0,0,1,1.73,0,62.75,62.75,0,0,1-.81,6.27,2.85,2.85,0,0,1-1.81,1.82C44,223.7,36.68,224.79,29.16,226Z"/><path class="cls-3" d="M144.8,203.36c-5.21-.7-10-1.28-14.81-2.08a3.19,3.19,0,0,1-1.93-2,51,51,0,0,1-1.06-5.89c4.2.52,8.23,1,12.25,1.57A2.69,2.69,0,0,1,141,196.1C142.34,198.41,143.49,200.8,144.8,203.36Z"/><path class="cls-3" d="M55.8,203.66l-18.45,4.6c1.31-2.72,2.45-5.07,3.61-7.41a1,1,0,0,1,.59-.47c5-1,10-2,15.43-3Z"/><path class="cls-3" d="M46.39,189.35c1.4-3,2.48-5.41,3.65-7.76a2.34,2.34,0,0,1,1.28-1.14c3-.83,6.1-1.56,9.73-2.46-.72,3.4-1.33,6.27-2,9.21Z"/><path class="cls-3" d="M134.38,184.34l-9.52-.79c-.62-2.5-1.26-5.08-1.92-7.69C129.24,175.1,131.25,176.56,134.38,184.34Z"/></g></g></svg>